<svg width="25" height="25" viewBox="0 0 25 25" fill="none" xmlns="http://www.w3.org/2000/svg">
<rect x="6.4292" y="13.4219" width="4" height="4" rx="2" transform="rotate(90 6.4292 13.4219)" />
<rect x="17.4292" y="12.4219" width="4" height="4" rx="2" transform="rotate(-90 17.4292 12.4219)" />
<path d="M18.2364 11.6138L16.9283 12.922C15.9113 13.9389 15.4029 14.4474 14.7913 14.5602C14.5514 14.6045 14.3054 14.6045 14.0655 14.5602C13.4539 14.4474 12.9454 13.9389 11.9285 12.922V12.922C10.9115 11.905 10.403 11.3965 9.79137 11.2836C9.55144 11.2394 9.30542 11.2394 9.06549 11.2837C8.45389 11.3966 7.94544 11.9051 6.92852 12.9223L5.61673 14.2343" />
</svg>
