<svg width="25" height="25" viewBox="0 0 25 25" fill="none" xmlns="http://www.w3.org/2000/svg">
<path d="M8.9292 14.6641L15.9292 14.6641" stroke-linecap="round"/>
<path d="M8.9292 17.6641L12.9292 17.6641" stroke-linecap="round"/>
<path d="M5.9292 6.82187C5.9292 5.9818 5.9292 5.56176 6.09269 5.24089C6.2365 4.95865 6.46597 4.72918 6.74821 4.58537C7.06908 4.42188 7.48912 4.42188 8.3292 4.42188H12.9351C13.302 4.42188 13.4854 4.42188 13.658 4.46332C13.8111 4.50007 13.9574 4.56067 14.0916 4.64291C14.243 4.73568 14.3727 4.86539 14.6321 5.12482L18.2263 8.71893C18.4857 8.97836 18.6154 9.10807 18.7082 9.25945C18.7904 9.39366 18.851 9.53997 18.8878 9.69303C18.9292 9.86566 18.9292 10.0491 18.9292 10.416V19.0219C18.9292 19.862 18.9292 20.282 18.7657 20.6029C18.6219 20.8851 18.3924 21.1146 18.1102 21.2584C17.7893 21.4219 17.3693 21.4219 16.5292 21.4219H8.3292C7.48912 21.4219 7.06908 21.4219 6.74821 21.2584C6.46597 21.1146 6.2365 20.8851 6.09269 20.6029C5.9292 20.282 5.9292 19.862 5.9292 19.0219V6.82187Z"/>
<path d="M13.1863 11.6295C13.0629 11.2842 12.791 10.979 12.4129 10.7614C12.0347 10.5437 11.5713 10.4258 11.0946 10.4258C10.6179 10.4258 10.1546 10.5437 9.7764 10.7614C9.39822 10.979 9.12636 11.2842 9.00298 11.6295" stroke-linecap="round"/>
<circle cx="11.0939" cy="7.80146" r="1.08271" stroke-linecap="round"/>
</svg>
