<svg width="24" height="24" viewBox="0 0 24 24" xmlns="http://www.w3.org/2000/svg">
<path d="M14.1362 3.36188L13.6387 3.41164L13.6387 3.41164L14.1362 3.36188ZM13.9837 2.54148L14.428 2.31223L14.428 2.31222L13.9837 2.54148ZM14.4309 4.81824L14.0333 5.12139L14.0333 5.12139L14.4309 4.81824ZM15.3598 5.20298L15.293 4.70746L15.293 4.70746L15.3598 5.20298ZM16.5976 4.38196L16.9142 4.76894L16.9142 4.76894L16.5976 4.38196ZM17.2846 3.91022L17.4369 4.38647L17.4369 4.38647L17.2846 3.91022ZM17.9869 3.94524L18.1858 3.4865L18.1858 3.4865L17.9869 3.94524ZM18.6236 4.48301L18.2701 4.83657L18.2701 4.83657L18.6236 4.48301ZM19.5176 5.37693L19.164 5.73048L19.164 5.73048L19.5176 5.37693ZM20.0552 6.01343L20.5139 5.81449L20.5139 5.81449L20.0552 6.01343ZM20.0902 6.71593L20.5664 6.86824L20.5664 6.86824L20.0902 6.71593ZM19.6186 7.40277L19.2316 7.08615L19.2316 7.08615L19.6186 7.40277ZM18.7978 8.64011L18.3023 8.57322L18.3023 8.57322L18.7978 8.64011ZM19.1827 9.56924L18.8796 9.96692L18.8796 9.96692L19.1827 9.56924ZM20.6384 9.86384L20.5887 10.3614L20.5887 10.3614L20.6384 9.86384ZM21.4583 10.0162L21.2292 10.4606L21.2292 10.4606L21.4583 10.0162ZM21.93 10.5374L22.395 10.3536L22.395 10.3536L21.93 10.5374ZM21.93 13.4626L21.465 13.2788L21.465 13.2788L21.93 13.4626ZM21.4583 13.9838L21.2291 13.5394L21.2291 13.5394L21.4583 13.9838ZM20.6387 14.1361L20.589 13.6386L20.589 13.6386L20.6387 14.1361ZM19.1827 14.4309L18.8795 14.0333L18.8795 14.0333L19.1827 14.4309ZM18.798 15.3596L18.3025 15.4263L18.3025 15.4263L18.798 15.3596ZM19.6195 16.598L20.01 16.2856L20.0065 16.2814L19.6195 16.598ZM19.6195 16.598L19.2291 16.9104L19.2325 16.9146L19.6195 16.598ZM20.0919 17.2861L20.5682 17.134L20.5682 17.134L20.0919 17.2861ZM20.0569 17.9876L20.5157 18.1863L20.5157 18.1863L20.0569 17.9876ZM17.9879 20.0565L18.1866 20.5153L18.1866 20.5153L17.9879 20.0565ZM17.2867 20.0915L17.4387 19.6151L17.4387 19.6151L17.2867 20.0915ZM16.5984 19.619L16.2818 20.006L16.2818 20.006L16.5984 19.619ZM15.3594 18.7972L15.426 18.3017L15.426 18.3017L15.3594 18.7972ZM14.4312 19.1817L14.8287 19.485L14.8287 19.485L14.4312 19.1817ZM14.1362 20.6385L13.6386 20.5887L13.6386 20.5887L14.1362 20.6385ZM13.9837 21.4585L13.5394 21.2292L13.5394 21.2292L13.9837 21.4585ZM13.4628 21.9299L13.2789 21.465L13.2789 21.465L13.4628 21.9299ZM10.5374 21.93L10.7212 21.465L10.7212 21.465L10.5374 21.93ZM10.0162 21.4583L10.4606 21.2291L10.4606 21.2291L10.0162 21.4583ZM9.86387 20.6387L10.3614 20.589L10.3614 20.589L9.86387 20.6387ZM9.5691 19.1827L9.96669 18.8795L9.96669 18.8795L9.5691 19.1827ZM8.64042 18.798L8.57367 18.3025L8.57367 18.3025L8.64042 18.798ZM7.40197 19.6195L7.08536 19.2325L7.08535 19.2325L7.40197 19.6195ZM6.71392 20.0919L6.56186 19.6155L6.56186 19.6156L6.71392 20.0919ZM6.0124 20.0569L6.2111 19.5981L6.2111 19.5981L6.0124 20.0569ZM5.37496 19.5186L5.0214 19.8722L5.0214 19.8722L5.37496 19.5186ZM4.48196 18.6256L4.83552 18.2721L4.83552 18.2721L4.48196 18.6256ZM3.94352 17.9879L3.48467 18.1866L3.48467 18.1866L3.94352 17.9879ZM3.90855 17.2867L4.38488 17.4387L4.38488 17.4387L3.90855 17.2867ZM4.381 16.5984L3.99402 16.2818L3.99402 16.2818L4.381 16.5984ZM5.20277 15.3594L4.70723 15.2928L4.70723 15.2928L5.20277 15.3594ZM4.8183 14.4312L4.51499 14.8287L4.51499 14.8287L4.8183 14.4312ZM3.36153 14.1362L3.41128 13.6386L3.41128 13.6386L3.36153 14.1362ZM2.54154 13.9837L2.77077 13.5394L2.77077 13.5394L2.54154 13.9837ZM2.07008 13.4628L2.53504 13.2789L2.53504 13.2789L2.07008 13.4628ZM2 12.6317L2.5 12.6317L2.5 12.6317L2 12.6317ZM2 11.3684L1.5 11.3684L1.5 11.3684L2 11.3684ZM2.0701 10.5372L2.53505 10.7211L2.53505 10.7211L2.0701 10.5372ZM2.54148 10.0163L2.77074 10.4606L2.77074 10.4606L2.54148 10.0163ZM3.36188 9.86381L3.41164 10.3613L3.41164 10.3613L3.36188 9.86381ZM4.81824 9.56905L5.12139 9.96667L5.12139 9.96667L4.81824 9.56905ZM5.20297 8.64022L4.70746 8.70702L4.70746 8.70702L5.20297 8.64022ZM4.38196 7.40244L3.99498 7.71906L3.99498 7.71906L4.38196 7.40244ZM3.91022 6.71535L4.38647 6.56311L4.38647 6.56311L3.91022 6.71535ZM3.94524 6.0131L3.4865 5.81421L3.4865 5.81421L3.94524 6.0131ZM4.48301 5.37636L4.12946 5.02281L4.12946 5.02281L4.48301 5.37636ZM5.37693 4.48245L5.73048 4.836L5.73048 4.836L5.37693 4.48245ZM6.01343 3.94484L5.81449 3.48612L5.81449 3.48612L6.01343 3.94484ZM6.71593 3.9098L6.86824 3.43357L6.86824 3.43357L6.71593 3.9098ZM7.40277 4.38141L7.08615 4.76839L7.08615 4.76839L7.40277 4.38141ZM8.64011 5.20219L8.57322 5.69769L8.57322 5.69769L8.64011 5.20219ZM9.56924 4.81733L9.96692 5.12041L9.96692 5.1204L9.56924 4.81733ZM9.86384 3.36157L10.3614 3.41133L10.3638 3.38651V3.36157H9.86384ZM9.86384 3.36157L9.36632 3.31181L9.36384 3.33663V3.36157H9.86384ZM10.0162 2.54166L10.4606 2.77083L10.4606 2.77083L10.0162 2.54166ZM10.5374 2.07003L10.7212 2.53501L10.7212 2.53501L10.5374 2.07003ZM13.4628 2.0701L13.2789 2.53505L13.2789 2.53505L13.4628 2.0701ZM14.6337 3.31213C14.6127 3.10173 14.5947 2.9196 14.5695 2.76965C14.5435 2.61479 14.5051 2.46153 14.428 2.31223L13.5394 2.77074C13.5497 2.79081 13.5658 2.83074 13.5833 2.93524C13.6017 3.04464 13.6163 3.18802 13.6387 3.41164L14.6337 3.31213ZM14.8286 4.51509C14.8173 4.50028 14.7806 4.43918 14.7421 4.22493C14.7044 4.0155 14.6756 3.73093 14.6337 3.31213L13.6387 3.41164C13.6789 3.81366 13.7116 4.14472 13.7579 4.40197C13.8033 4.65442 13.873 4.91108 14.0333 5.12139L14.8286 4.51509ZM15.293 4.70746C15.1149 4.73147 14.9375 4.65803 14.8286 4.51509L14.0333 5.12139C14.3603 5.5502 14.8922 5.77053 15.4266 5.69849L15.293 4.70746ZM16.2809 3.99498C15.9553 4.26139 15.7339 4.44212 15.5592 4.56351C15.3806 4.68767 15.3115 4.70497 15.293 4.70746L15.4266 5.69849C15.6886 5.66317 15.9193 5.53102 16.1299 5.38466C16.3445 5.23553 16.6016 5.02467 16.9142 4.76894L16.2809 3.99498ZM17.1324 3.43396C16.9725 3.48506 16.8371 3.56616 16.7094 3.65718C16.5857 3.74531 16.4444 3.86126 16.2809 3.99498L16.9142 4.76894C17.0879 4.62682 17.1994 4.53588 17.2897 4.4716C17.3758 4.4102 17.4154 4.39335 17.4369 4.38647L17.1324 3.43396ZM18.1858 3.4865C17.8526 3.34205 17.4783 3.32338 17.1324 3.43396L17.4369 4.38647C17.5522 4.34961 17.677 4.35584 17.788 4.40399L18.1858 3.4865ZM18.9772 4.12946C18.8279 3.98014 18.6988 3.85071 18.5845 3.7507C18.4664 3.64742 18.3398 3.55326 18.1858 3.4865L17.788 4.40399C17.8087 4.41297 17.8464 4.43368 17.9261 4.50334C18.0094 4.57628 18.1114 4.67786 18.2701 4.83657L18.9772 4.12946ZM19.8711 5.02337L18.9772 4.12946L18.2701 4.83657L19.164 5.73048L19.8711 5.02337ZM20.5139 5.81449C20.4471 5.66056 20.353 5.53395 20.2497 5.41593C20.1498 5.30166 20.0204 5.17264 19.8711 5.02337L19.164 5.73048C19.3226 5.88913 19.4242 5.99104 19.4971 6.07439C19.5668 6.15399 19.5875 6.19167 19.5964 6.21237L20.5139 5.81449ZM20.5664 6.86824C20.6771 6.52221 20.6584 6.14778 20.5139 5.81449L19.5964 6.21237C19.6446 6.32347 19.6508 6.44828 19.614 6.56362L20.5664 6.86824ZM20.0056 7.71939C20.1392 7.55601 20.2552 7.41475 20.3433 7.2911C20.4343 7.1634 20.5153 7.02804 20.5664 6.86824L19.614 6.56362C19.6071 6.58511 19.5902 6.62467 19.5289 6.7108C19.4646 6.80099 19.3737 6.9125 19.2316 7.08615L20.0056 7.71939ZM19.2933 8.707C19.2958 8.68853 19.3131 8.61945 19.4372 8.44087C19.5586 8.26628 19.7393 8.04488 20.0056 7.71939L19.2316 7.08615C18.976 7.3986 18.7652 7.65564 18.6161 7.87013C18.4698 8.08063 18.3377 8.31125 18.3023 8.57322L19.2933 8.707ZM19.4857 9.17157C19.3427 9.06258 19.2693 8.88519 19.2933 8.707L18.3023 8.57322C18.2301 9.10779 18.4506 9.63995 18.8796 9.96692L19.4857 9.17157ZM20.6882 9.36632C20.2696 9.32446 19.9851 9.29565 19.7758 9.258C19.5616 9.21948 19.5006 9.18285 19.4857 9.17157L18.8796 9.96692C19.0899 10.1272 19.3464 10.1968 19.5988 10.2422C19.8559 10.2885 20.1868 10.3212 20.5887 10.3614L20.6882 9.36632ZM21.6875 9.57182C21.5383 9.49486 21.3851 9.45643 21.2303 9.43045C21.0805 9.40529 20.8984 9.38735 20.6882 9.36632L20.5887 10.3614C20.8122 10.3837 20.9554 10.3983 21.0648 10.4167C21.1692 10.4342 21.2091 10.4503 21.2292 10.4606L21.6875 9.57182ZM22.395 10.3536C22.2615 10.016 22.0101 9.7382 21.6875 9.57182L21.2292 10.4606C21.3367 10.5161 21.4205 10.6086 21.465 10.7212L22.395 10.3536ZM22.5 11.3681C22.5 11.1569 22.5003 10.9741 22.4901 10.8225C22.4797 10.6659 22.4567 10.5097 22.395 10.3536L21.465 10.7212C21.4733 10.7422 21.4853 10.7835 21.4924 10.8891C21.4997 10.9997 21.5 11.1436 21.5 11.3681H22.5ZM22.5 12.6319V11.3681H21.5V12.6319H22.5ZM22.395 13.6464C22.4567 13.4902 22.4797 13.3341 22.4901 13.1775C22.5003 13.026 22.5 12.8431 22.5 12.6319H21.5C21.5 12.8564 21.4997 13.0004 21.4924 13.1109C21.4853 13.2165 21.4733 13.2578 21.465 13.2788L22.395 13.6464ZM21.6874 14.4282C22.0101 14.2618 22.2615 13.984 22.395 13.6464L21.465 13.2788C21.4205 13.3914 21.3367 13.484 21.2291 13.5394L21.6874 14.4282ZM20.6885 14.6336C20.8986 14.6126 21.0806 14.5947 21.2304 14.5695C21.3851 14.5436 21.5382 14.5052 21.6874 14.4282L21.2291 13.5394C21.2091 13.5498 21.1692 13.5658 21.0648 13.5833C20.9555 13.6017 20.8123 13.6163 20.589 13.6386L20.6885 14.6336ZM19.4859 14.8285C19.5007 14.8172 19.5618 14.7805 19.776 14.742C19.9853 14.7043 20.2698 14.6755 20.6885 14.6336L20.589 13.6386C20.1871 13.6788 19.8561 13.7115 19.5989 13.7578C19.3464 13.8032 19.0898 13.8729 18.8795 14.0333L19.4859 14.8285ZM19.2936 15.2928C19.2696 15.1147 19.343 14.9375 19.4859 14.8285L18.8795 14.0333C18.4508 14.3602 18.2305 14.892 18.3025 15.4263L19.2936 15.2928ZM20.0065 16.2814C19.7399 15.9556 19.5591 15.734 19.4376 15.5592C19.3133 15.3804 19.296 15.3113 19.2936 15.2928L18.3025 15.4263C18.3378 15.6885 18.47 15.9193 18.6165 16.1299C18.7657 16.3446 18.9766 16.6019 19.2325 16.9146L20.0065 16.2814ZM20.01 16.2857L20.0099 16.2857L19.2291 16.9104L19.2291 16.9104L20.01 16.2857ZM20.5682 17.134C20.5171 16.9739 20.4359 16.8384 20.3448 16.7105C20.2565 16.5866 20.1404 16.4451 20.0065 16.2814L19.2325 16.9146C19.3749 17.0886 19.4659 17.2003 19.5303 17.2907C19.5918 17.377 19.6087 17.4166 19.6156 17.4381L20.5682 17.134ZM20.5157 18.1863C20.6599 17.8534 20.6785 17.4796 20.5682 17.134L19.6156 17.4381C19.6523 17.5533 19.6461 17.6779 19.5981 17.7889L20.5157 18.1863ZM19.8722 18.9786C20.0216 18.8291 20.1512 18.6999 20.2513 18.5855C20.3547 18.4673 20.4489 18.3405 20.5157 18.1863L19.5981 17.7889C19.5891 17.8096 19.5684 17.8474 19.4986 17.9271C19.4256 18.0106 19.3239 18.1126 19.1651 18.2715L19.8722 18.9786ZM18.9792 19.8716L19.8722 18.9786L19.1651 18.2715L18.2721 19.1645L18.9792 19.8716ZM18.1866 20.5153C18.3408 20.4486 18.4677 20.3543 18.5859 20.2509C18.7004 20.1507 18.8296 20.0211 18.9792 19.8716L18.2721 19.1645C18.1131 19.3234 18.011 19.4251 17.9275 19.4982C17.8478 19.5679 17.81 19.5886 17.7893 19.5976L18.1866 20.5153ZM17.1347 20.5678C17.4801 20.678 17.8538 20.6594 18.1866 20.5153L17.7893 19.5976C17.6784 19.6456 17.5538 19.6519 17.4387 19.6151L17.1347 20.5678ZM16.2818 20.006C16.4455 20.1399 16.5871 20.2561 16.7109 20.3443C16.8389 20.4355 16.9745 20.5167 17.1347 20.5678L17.4387 19.6151C17.4171 19.6082 17.3775 19.5914 17.2912 19.5299C17.2008 19.4655 17.089 19.3744 16.915 19.232L16.2818 20.006ZM15.2928 19.2928C15.3112 19.2953 15.3804 19.3125 15.5593 19.4368C15.7341 19.5583 15.9558 19.7393 16.2818 20.006L16.915 19.232C16.6021 18.976 16.3447 18.7649 16.13 18.6157C15.9192 18.4692 15.6883 18.3369 15.426 18.3017L15.2928 19.2928ZM14.8287 19.485C14.9376 19.3422 15.1148 19.2688 15.2928 19.2928L15.426 18.3017C14.892 18.2299 14.3605 18.45 14.0337 18.8784L14.8287 19.485ZM14.6337 20.6882C14.6756 20.2693 14.7044 19.9847 14.7421 19.7752C14.7807 19.561 14.8173 19.4998 14.8287 19.485L14.0337 18.8784C13.8731 19.0888 13.8034 19.3455 13.7579 19.5981C13.7116 19.8554 13.6788 20.1866 13.6386 20.5887L14.6337 20.6882ZM14.4281 21.6877C14.5051 21.5384 14.5435 21.3852 14.5695 21.2304C14.5947 21.0805 14.6126 20.8985 14.6337 20.6882L13.6386 20.5887C13.6163 20.8122 13.6017 20.9555 13.5833 21.0648C13.5658 21.1692 13.5497 21.2091 13.5394 21.2292L14.4281 21.6877ZM13.6466 22.3949C13.9841 22.2614 14.2617 22.0102 14.4281 21.6877L13.5394 21.2292C13.4839 21.3367 13.3914 21.4205 13.2789 21.465L13.6466 22.3949ZM12.6317 22.5C12.843 22.5 13.0259 22.5003 13.1776 22.4901C13.3342 22.4797 13.4905 22.4567 13.6466 22.3949L13.2789 21.465C13.2579 21.4733 13.2166 21.4853 13.1109 21.4924C13.0003 21.4997 12.8563 21.5 12.6317 21.5V22.5ZM11.3681 22.5H12.6317V21.5H11.3681V22.5ZM10.3536 22.395C10.5098 22.4567 10.6659 22.4797 10.8225 22.4901C10.974 22.5003 11.1569 22.5 11.3681 22.5V21.5C11.1436 21.5 10.9996 21.4997 10.8891 21.4924C10.7835 21.4853 10.7422 21.4733 10.7212 21.465L10.3536 22.395ZM9.57177 21.6874C9.73817 22.0101 10.016 22.2615 10.3536 22.395L10.7212 21.465C10.6086 21.4205 10.516 21.3367 10.4606 21.2291L9.57177 21.6874ZM9.36635 20.6885C9.38737 20.8986 9.4053 21.0806 9.43045 21.2304C9.45643 21.3851 9.49484 21.5382 9.57177 21.6874L10.4606 21.2291C10.4502 21.2091 10.4342 21.1692 10.4167 21.0648C10.3983 20.9555 10.3837 20.8123 10.3614 20.589L9.36635 20.6885ZM9.17151 19.4859C9.18282 19.5007 9.21947 19.5618 9.258 19.776C9.29567 19.9853 9.32449 20.2698 9.36635 20.6885L10.3614 20.589C10.3212 20.1871 10.2885 19.8561 10.2422 19.5989C10.1968 19.3464 10.1271 19.0898 9.96669 18.8795L9.17151 19.4859ZM8.70717 19.2936C8.88527 19.2696 9.06254 19.343 9.17151 19.4859L9.96669 18.8795C9.63978 18.4508 9.10796 18.2305 8.57367 18.3025L8.70717 19.2936ZM7.71859 20.0065C8.0444 19.7399 8.26604 19.5591 8.4408 19.4376C8.61957 19.3133 8.68871 19.296 8.70717 19.2936L8.57367 18.3025C8.31152 18.3378 8.08072 18.47 7.87006 18.6165C7.6554 18.7657 7.39811 18.9766 7.08536 19.2325L7.71859 20.0065ZM6.86597 20.5682C7.02605 20.5171 7.16164 20.4359 7.28955 20.3448C7.41341 20.2565 7.55491 20.1404 7.71859 20.0065L7.08535 19.2325C6.91139 19.3749 6.79967 19.4659 6.7093 19.5303C6.623 19.5918 6.58337 19.6087 6.56186 19.6155L6.86597 20.5682ZM5.8137 20.5157C6.14658 20.6599 6.52041 20.6785 6.86598 20.5682L6.56186 19.6156C6.44667 19.6523 6.32206 19.6461 6.2111 19.5981L5.8137 20.5157ZM5.0214 19.8722C5.17088 20.0216 5.30009 20.1512 5.41452 20.2513C5.53271 20.3547 5.65953 20.4489 5.81371 20.5157L6.2111 19.5981C6.19036 19.5891 6.15262 19.5684 6.07291 19.4986C5.98944 19.4256 5.88738 19.3239 5.72851 19.1651L5.0214 19.8722ZM4.12841 18.9792L5.0214 19.8722L5.72851 19.1651L4.83552 18.2721L4.12841 18.9792ZM3.48467 18.1866C3.55145 18.3408 3.64572 18.4677 3.74913 18.5859C3.84926 18.7004 3.97888 18.8296 4.12841 18.9792L4.83552 18.2721C4.67659 18.1131 4.57486 18.011 4.50183 17.9275C4.43208 17.8478 4.41135 17.81 4.40237 17.7893L3.48467 18.1866ZM3.43221 17.1347C3.32198 17.4801 3.34061 17.8538 3.48467 18.1866L4.40237 17.7893C4.35435 17.6784 4.34814 17.5538 4.38488 17.4387L3.43221 17.1347ZM3.99402 16.2818C3.86007 16.4455 3.74392 16.587 3.65566 16.7109C3.56451 16.8389 3.48331 16.9745 3.43221 17.1347L4.38488 17.4387C4.39175 17.4171 4.40862 17.3775 4.47012 17.2912C4.53451 17.2008 4.62561 17.089 4.76798 16.915L3.99402 16.2818ZM4.70723 15.2928C4.70475 15.3112 4.68746 15.3804 4.56317 15.5593C4.44165 15.7341 4.26071 15.9558 3.99402 16.2818L4.76798 16.915C5.02398 16.6021 5.23506 16.3447 5.38432 16.13C5.53081 15.9192 5.66306 15.6883 5.69832 15.426L4.70723 15.2928ZM4.51499 14.8287C4.65777 14.9376 4.73115 15.1148 4.70723 15.2928L5.69832 15.426C5.77009 14.892 5.54995 14.3605 5.12161 14.0337L4.51499 14.8287ZM3.31177 14.6337C3.73069 14.6756 4.0153 14.7044 4.22478 14.7421C4.43904 14.7807 4.50015 14.8173 4.51499 14.8287L5.12161 14.0337C4.91123 13.8731 4.65448 13.8034 4.40191 13.7579C4.14456 13.7116 3.8134 13.6788 3.41128 13.6386L3.31177 14.6337ZM2.31232 14.4281C2.46158 14.5051 2.61477 14.5435 2.76958 14.5695C2.91947 14.5947 3.1015 14.6126 3.31177 14.6337L3.41128 13.6386C3.18779 13.6163 3.04451 13.6017 2.93518 13.5833C2.83077 13.5658 2.79085 13.5497 2.77077 13.5394L2.31232 14.4281ZM1.60511 13.6466C1.73856 13.9841 1.98982 14.2617 2.31232 14.4281L2.77077 13.5394C2.66327 13.4839 2.57952 13.3914 2.53504 13.2789L1.60511 13.6466ZM1.5 12.6317C1.5 12.843 1.49974 13.0259 1.50987 13.1776C1.52033 13.3342 1.54335 13.4904 1.60511 13.6466L2.53504 13.2789C2.52673 13.2579 2.5147 13.2166 2.50765 13.1109C2.50026 13.0003 2.5 12.8563 2.5 12.6317L1.5 12.6317ZM1.5 11.3684L1.5 12.6317L2.5 12.6317L2.5 11.3684L1.5 11.3684ZM1.60515 10.3533C1.54336 10.5095 1.52034 10.6658 1.50987 10.8224C1.49974 10.9741 1.5 11.157 1.5 11.3684L2.5 11.3684C2.5 11.1438 2.50026 10.9997 2.50765 10.8891C2.51471 10.7834 2.52674 10.7421 2.53505 10.7211L1.60515 10.3533ZM2.31223 9.57196C1.9898 9.73831 1.7386 10.0159 1.60515 10.3533L2.53505 10.7211C2.57953 10.6086 2.66327 10.5161 2.77074 10.4606L2.31223 9.57196ZM3.31213 9.36629C3.10173 9.38733 2.9196 9.40529 2.76965 9.43046C2.61479 9.45647 2.46153 9.49492 2.31223 9.57196L2.77074 10.4606C2.79081 10.4503 2.83074 10.4342 2.93524 10.4167C3.04464 10.3983 3.18802 10.3837 3.41164 10.3613L3.31213 9.36629ZM4.51509 9.17143C4.50028 9.18272 4.43917 9.21937 4.22493 9.25791C4.01549 9.29559 3.73093 9.32441 3.31213 9.36629L3.41164 10.3613C3.81366 10.3211 4.14472 10.2884 4.40197 10.2421C4.65442 10.1967 4.91108 10.127 5.12139 9.96667L4.51509 9.17143ZM4.70746 8.70702C4.73147 8.88515 4.65802 9.06246 4.51509 9.17143L5.12139 9.96667C5.5502 9.63974 5.77053 9.10781 5.69849 8.57343L4.70746 8.70702ZM3.99498 7.71906C4.26139 8.04466 4.44212 8.26614 4.56351 8.4408C4.68767 8.61943 4.70497 8.68854 4.70746 8.70702L5.69849 8.57343C5.66317 8.31136 5.53102 8.08065 5.38466 7.87007C5.23553 7.65551 5.02467 7.39837 4.76894 7.08582L3.99498 7.71906ZM3.43396 6.8676C3.48506 7.02747 3.56616 7.16287 3.65718 7.29062C3.74531 7.41432 3.86126 7.55562 3.99498 7.71906L4.76894 7.08582C4.62682 6.91211 4.53588 6.80056 4.4716 6.71034C4.4102 6.62418 4.39335 6.58461 4.38647 6.56311L3.43396 6.8676ZM3.4865 5.81421C3.34205 6.14741 3.32338 6.52169 3.43396 6.8676L4.38647 6.56311C4.34961 6.4478 4.35584 6.32304 4.40399 6.21198L3.4865 5.81421ZM4.12946 5.02281C3.98014 5.17213 3.85071 5.3012 3.7507 5.4155C3.64742 5.53356 3.55326 5.66023 3.4865 5.81421L4.40399 6.21198C4.41297 6.19126 4.43368 6.15357 4.50334 6.07394C4.57628 5.99057 4.67786 5.88862 4.83656 5.72992L4.12946 5.02281ZM4.12946 5.02281L4.12946 5.02281L4.83656 5.72992L4.83657 5.72991L4.12946 5.02281ZM5.02337 4.12889L4.12946 5.02281L4.83657 5.72991L5.73048 4.836L5.02337 4.12889ZM5.81449 3.48612C5.66056 3.55288 5.53395 3.64702 5.41593 3.75027C5.30166 3.85024 5.17264 3.97963 5.02337 4.12889L5.73048 4.836C5.88913 4.67735 5.99104 4.57581 6.07439 4.50289C6.15399 4.43325 6.19167 4.41254 6.21237 4.40356L5.81449 3.48612ZM6.86824 3.43357C6.52221 3.3229 6.14779 3.34158 5.81449 3.48612L6.21237 4.40356C6.32347 4.35538 6.44828 4.34915 6.56362 4.38604L6.86824 3.43357ZM7.71939 3.99443C7.55601 3.86076 7.41475 3.74485 7.2911 3.65674C7.1634 3.56575 7.02804 3.48467 6.86824 3.43357L6.56362 4.38604C6.58512 4.39291 6.62467 4.40977 6.7108 4.47114C6.80099 4.53541 6.9125 4.62631 7.08615 4.76839L7.71939 3.99443ZM8.707 4.70668C8.68853 4.70419 8.61945 4.68689 8.44087 4.56277C8.26628 4.44141 8.04488 4.26074 7.71939 3.99443L7.08615 4.76839C7.3986 5.02402 7.65564 5.23481 7.87013 5.3839C8.08063 5.53021 8.31125 5.66233 8.57322 5.69769L8.707 4.70668ZM9.17157 4.51425C9.06258 4.65726 8.88519 4.73074 8.707 4.70668L8.57322 5.69769C9.10779 5.76986 9.63995 5.54943 9.96692 5.12041L9.17157 4.51425ZM9.36632 3.31182C9.32446 3.73043 9.29565 4.01487 9.258 4.22421C9.21948 4.43835 9.18285 4.49945 9.17157 4.51425L9.96692 5.1204C10.1272 4.91014 10.1968 4.65359 10.2422 4.40123C10.2885 4.14408 10.3212 3.81317 10.3614 3.41133L9.36632 3.31182ZM9.36384 3.36157V3.36157H10.3638V3.36157H9.36384ZM9.57182 2.3125C9.49486 2.46173 9.45644 2.6149 9.43045 2.76967C9.40529 2.91953 9.38735 3.10155 9.36632 3.31181L10.3614 3.41132C10.3837 3.18784 10.3983 3.04456 10.4167 2.93523C10.4342 2.83081 10.4503 2.79089 10.4606 2.77083L9.57182 2.3125ZM10.3536 1.60504C10.016 1.73849 9.7382 1.98985 9.57182 2.3125L10.4606 2.77083C10.5161 2.66328 10.6086 2.5795 10.7212 2.53501L10.3536 1.60504ZM11.3681 1.5C11.1569 1.5 10.9741 1.49974 10.8225 1.50986C10.6659 1.52032 10.5097 1.54332 10.3536 1.60504L10.7212 2.53501C10.7422 2.52671 10.7835 2.51469 10.8891 2.50764C10.9997 2.50026 11.1436 2.5 11.3681 2.5V1.5ZM12.6316 1.5H11.3681V2.5H12.6316V1.5ZM13.6467 1.60515C13.4905 1.54336 13.3342 1.52034 13.1776 1.50987C13.0259 1.49974 12.843 1.5 12.6316 1.5V2.5C12.8562 2.5 13.0003 2.50026 13.1109 2.50765C13.2166 2.51471 13.2579 2.52674 13.2789 2.53505L13.6467 1.60515ZM14.428 2.31222C14.2617 1.9898 13.9841 1.7386 13.6467 1.60515L13.2789 2.53505C13.3914 2.57953 13.4839 2.66327 13.5394 2.77074L14.428 2.31222ZM12 7.5025C9.5161 7.5025 7.5025 9.5161 7.5025 12H8.5025C8.5025 10.0684 10.0684 8.5025 12 8.5025V7.5025ZM16.4975 12C16.4975 9.5161 14.4839 7.5025 12 7.5025V8.5025C13.9316 8.5025 15.4975 10.0684 15.4975 12H16.4975ZM12 16.4975C14.4839 16.4975 16.4975 14.4839 16.4975 12H15.4975C15.4975 13.9316 13.9316 15.4975 12 15.4975V16.4975ZM7.5025 12C7.5025 14.4839 9.5161 16.4975 12 16.4975V15.4975C10.0684 15.4975 8.5025 13.9316 8.5025 12H7.5025ZM8.4975 12C8.4975 10.0656 10.0656 8.4975 12 8.4975V7.4975C9.51334 7.4975 7.4975 9.51334 7.4975 12H8.4975ZM12 15.5025C10.0656 15.5025 8.4975 13.9344 8.4975 12H7.4975C7.4975 14.4867 9.51334 16.5025 12 16.5025V15.5025ZM15.5025 12C15.5025 13.9344 13.9344 15.5025 12 15.5025V16.5025C14.4867 16.5025 16.5025 14.4867 16.5025 12H15.5025ZM12 8.4975C13.9344 8.4975 15.5025 10.0656 15.5025 12H16.5025C16.5025 9.51334 14.4867 7.4975 12 7.4975V8.4975Z"/>
</svg>
