<svg width="22" height="22" viewBox="0 0 22 22" fill="none" xmlns="http://www.w3.org/2000/svg">
<path d="M13.5654 2.28376L13.0679 2.33351V2.33351L13.5654 2.28376ZM13.4129 1.46336L12.9686 1.69262L12.9686 1.69262L13.4129 1.46336ZM13.8601 3.74012L13.4625 4.04327V4.04327L13.8601 3.74012ZM14.789 4.12485L14.8558 4.62037L14.789 4.12485ZM16.0268 3.30384L15.7101 2.91686V2.91686L16.0268 3.30384ZM16.7138 2.83209L16.8661 3.30835V3.30835L16.7138 2.83209ZM17.4161 2.86712L17.615 2.40837L17.4161 2.86712ZM18.0528 3.40489L17.6993 3.75844V3.75844L18.0528 3.40489ZM18.9468 4.2988L18.5932 4.65236L18.5932 4.65236L18.9468 4.2988ZM19.4844 4.93531L19.9431 4.73637V4.73636L19.4844 4.93531ZM19.5194 5.6378L19.0432 5.48549L19.0432 5.4855L19.5194 5.6378ZM19.0478 6.32464L18.6608 6.00802V6.00802L19.0478 6.32464ZM18.227 7.56199L17.7315 7.49509L17.7315 7.4951L18.227 7.56199ZM18.6119 8.49112L18.3088 8.88879L18.3088 8.88879L18.6119 8.49112ZM20.0676 8.78572L20.0179 9.28324L20.0676 8.78572ZM20.8875 8.93808L20.6584 9.38247L20.8875 8.93808ZM21.3592 9.45924L21.8242 9.27543L21.8242 9.27543L21.3592 9.45924ZM21.3592 12.3844L20.8942 12.2007L20.8942 12.2007L21.3592 12.3844ZM20.8875 12.9057L20.6583 12.4613V12.4613L20.8875 12.9057ZM20.0679 13.058L20.0182 12.5605L20.0679 13.058ZM18.6119 13.3528L18.3087 12.9552L18.6119 13.3528ZM18.2272 14.2815L17.7317 14.3482L17.7317 14.3482L18.2272 14.2815ZM19.0487 15.5199L19.4392 15.2075L19.4357 15.2033L19.0487 15.5199ZM19.0487 15.5199L18.6583 15.8323L18.6617 15.8365L19.0487 15.5199ZM19.5211 16.208L19.9974 16.0559L19.9974 16.0559L19.5211 16.208ZM19.4861 16.9095L19.0273 16.7108L19.0273 16.7108L19.4861 16.9095ZM17.4171 18.9784L17.2185 18.5195H17.2185L17.4171 18.9784ZM16.7159 19.0133L16.8679 18.537H16.8679L16.7159 19.0133ZM16.0276 18.5409L15.711 18.9279H15.711L16.0276 18.5409ZM14.7886 17.7191L14.722 18.2146H14.722L14.7886 17.7191ZM13.8604 18.1036L13.4629 17.8003H13.4629L13.8604 18.1036ZM13.5654 19.5604L13.0678 19.5106L13.5654 19.5604ZM13.4129 20.3803L12.9686 20.1511L12.9686 20.1511L13.4129 20.3803ZM12.892 20.8518L12.7081 20.3868H12.7081L12.892 20.8518ZM9.96663 20.8519L9.78284 21.3169H9.78285L9.96663 20.8519ZM9.44538 20.3801L9.88978 20.151H9.88978L9.44538 20.3801ZM9.29307 19.5606L9.79059 19.5108L9.29307 19.5606ZM8.9983 18.1046L9.39589 17.8014H9.39588L8.9983 18.1046ZM8.06962 17.7199L8.00287 17.2244L8.00286 17.2244L8.06962 17.7199ZM6.83119 18.5414L6.51457 18.1544L6.49527 18.1702L6.47763 18.1878L6.83119 18.5414ZM6.83117 18.5414L7.16336 18.9151L7.17434 18.9053L7.18473 18.8949L6.83117 18.5414ZM6.83116 18.5414L7.14778 18.9284L7.1557 18.9219L7.16334 18.9151L6.83116 18.5414ZM6.14312 19.0137L6.29517 19.4901L6.29517 19.4901L6.14312 19.0137ZM5.4416 18.9788L5.2429 19.4376L5.24291 19.4376L5.4416 18.9788ZM4.80416 18.4405L5.15771 18.0869L5.15771 18.0869L4.80416 18.4405ZM3.91116 17.5475L3.55761 17.901H3.55761L3.91116 17.5475ZM3.37272 16.9098L3.83157 16.7112L3.37272 16.9098ZM3.33774 16.2085L2.86141 16.0565H2.86141L3.33774 16.2085ZM3.8102 15.5203L3.43391 15.191L3.42846 15.1973L3.42322 15.2037L3.8102 15.5203ZM3.8102 15.5203L4.18649 15.8495L4.19194 15.8433L4.19718 15.8369L3.8102 15.5203ZM4.63197 14.2812L4.13643 14.2146V14.2146L4.63197 14.2812ZM4.2475 13.353L3.94419 13.7505H3.94419L4.2475 13.353ZM2.79072 13.058L2.84048 12.5605H2.84048L2.79072 13.058ZM1.97074 12.9056L2.19997 12.4612H2.19997L1.97074 12.9056ZM1.49927 12.3846L1.96424 12.2008H1.96424L1.49927 12.3846ZM1.4993 9.45905L1.96425 9.64296L1.96425 9.64295L1.4993 9.45905ZM1.97068 8.93818L1.74143 8.49383H1.74143L1.97068 8.93818ZM2.79108 8.78569V8.28569H2.76614L2.74133 8.28817L2.79108 8.78569ZM2.79108 8.78569V9.28569H2.81602L2.84083 9.2832L2.79108 8.78569ZM4.24744 8.49093L3.94429 8.09331H3.94429L4.24744 8.49093ZM4.63217 7.5621L5.12769 7.4953L4.63217 7.5621ZM3.81116 6.32431L4.19814 6.00769H4.19814L3.81116 6.32431ZM3.33942 5.63723L3.81567 5.48498L3.81567 5.48498L3.33942 5.63723ZM3.37444 4.93497L2.9157 4.73609L2.9157 4.73609L3.37444 4.93497ZM3.91221 4.29824L3.55866 3.94468H3.55866L3.91221 4.29824ZM5.44263 2.86672L5.24369 2.408L5.44263 2.86672ZM6.14513 2.83168L5.99282 3.30791V3.30791L6.14513 2.83168ZM6.83196 3.30328L7.18552 2.94973L7.16788 2.93209L7.14858 2.9163L6.83196 3.30328ZM6.83197 3.30328L6.47841 3.65684L6.49605 3.67447L6.51535 3.69026L6.83197 3.30328ZM8.06931 4.12406L8.00242 4.61957L8.06931 4.12406ZM8.99844 3.7392L8.60077 3.43613L8.99844 3.7392ZM9.29304 2.28345L9.79056 2.3332L9.79304 2.30839V2.28345H9.29304ZM9.29304 2.28345L8.79552 2.23369L8.79304 2.25851V2.28345H9.29304ZM9.44541 1.46354L9.8898 1.69271L9.8898 1.69271L9.44541 1.46354ZM9.96656 0.9919L10.1504 1.45689V1.45689L9.96656 0.9919ZM12.892 0.991975L12.7081 1.45692L12.7081 1.45693L12.892 0.991975ZM14.0629 2.23401C14.0419 2.02361 14.0239 1.84147 13.9987 1.69152C13.9727 1.53666 13.9343 1.38341 13.8572 1.2341L12.9686 1.69262C12.9789 1.71268 12.995 1.75262 13.0125 1.85711C13.0309 1.96651 13.0455 2.10989 13.0679 2.33351L14.0629 2.23401ZM14.2578 3.43697C14.2465 3.42216 14.2098 3.36105 14.1713 3.14681C14.1336 2.93737 14.1048 2.6528 14.0629 2.23401L13.0679 2.33351C13.1081 2.73554 13.1408 3.06659 13.1871 3.32385C13.2325 3.5763 13.3022 3.83296 13.4625 4.04327L14.2578 3.43697ZM14.7222 3.62933C14.544 3.65334 14.3667 3.5799 14.2578 3.43697L13.4625 4.04327C13.7895 4.47207 14.3214 4.6924 14.8558 4.62037L14.7222 3.62933ZM15.7101 2.91686C15.3845 3.18326 15.1631 3.364 14.9884 3.48539C14.8098 3.60955 14.7407 3.62684 14.7222 3.62933L14.8558 4.62037C15.1178 4.58504 15.3485 4.45289 15.5591 4.30653C15.7737 4.1574 16.0308 3.94654 16.3434 3.69082L15.7101 2.91686ZM16.5616 2.35583C16.4017 2.40694 16.2663 2.48803 16.1386 2.57906C16.0149 2.66719 15.8736 2.78314 15.7101 2.91686L16.3434 3.69082C16.5171 3.54869 16.6286 3.45776 16.7189 3.39347C16.805 3.33208 16.8446 3.31522 16.8661 3.30835L16.5616 2.35583ZM17.615 2.40837C17.2818 2.26392 16.9075 2.24525 16.5616 2.35583L16.8661 3.30835C16.9814 3.27149 17.1062 3.27771 17.2172 3.32586L17.615 2.40837ZM18.4064 3.05134C18.2571 2.90202 18.128 2.77258 18.0137 2.67258C17.8956 2.5693 17.769 2.47513 17.615 2.40837L17.2172 3.32586C17.2379 3.33484 17.2756 3.35555 17.3553 3.42521C17.4386 3.49816 17.5406 3.59974 17.6993 3.75844L18.4064 3.05134ZM19.3003 3.94525L18.4064 3.05134L17.6993 3.75844L18.5932 4.65236L19.3003 3.94525ZM19.9431 4.73636C19.8763 4.58244 19.7822 4.45582 19.6789 4.33781C19.579 4.22354 19.4496 4.09451 19.3003 3.94525L18.5932 4.65236C18.7518 4.81101 18.8534 4.91292 18.9263 4.99626C18.996 5.07586 19.0167 5.11354 19.0256 5.13425L19.9431 4.73636ZM19.9956 5.79012C20.1063 5.44409 20.0876 5.06966 19.9431 4.73637L19.0256 5.13424C19.0738 5.24535 19.08 5.37015 19.0432 5.48549L19.9956 5.79012ZM19.4348 6.64126C19.5684 6.47789 19.6844 6.33663 19.7725 6.21298C19.8635 6.08527 19.9445 5.94992 19.9956 5.79011L19.0432 5.4855C19.0363 5.50699 19.0194 5.54654 18.9581 5.63268C18.8938 5.72287 18.8029 5.83438 18.6608 6.00802L19.4348 6.64126ZM18.7225 7.62888C18.725 7.61041 18.7423 7.54132 18.8664 7.36275C18.9878 7.18816 19.1685 6.96675 19.4348 6.64126L18.6608 6.00802C18.4052 6.32047 18.1944 6.57752 18.0453 6.792C17.899 7.00251 17.7669 7.23313 17.7315 7.49509L18.7225 7.62888ZM18.9149 8.09344C18.7719 7.98445 18.6985 7.80707 18.7225 7.62888L17.7315 7.4951C17.6593 8.02967 17.8798 8.56182 18.3088 8.88879L18.9149 8.09344ZM20.1174 8.2882C19.6988 8.24634 19.4143 8.21753 19.205 8.17987C18.9908 8.14136 18.9298 8.10473 18.9149 8.09344L18.3088 8.88879C18.5191 9.04904 18.7756 9.11869 19.028 9.16408C19.2851 9.21033 19.616 9.24305 20.0179 9.28324L20.1174 8.2882ZM21.1167 8.49369C20.9675 8.41673 20.8143 8.37831 20.6595 8.35233C20.5097 8.32717 20.3276 8.30923 20.1174 8.2882L20.0179 9.28324C20.2414 9.30558 20.3846 9.32017 20.494 9.33853C20.5984 9.35606 20.6383 9.37213 20.6584 9.38247L21.1167 8.49369ZM21.8242 9.27543C21.6907 8.93783 21.4393 8.66008 21.1167 8.49369L20.6584 9.38247C20.7659 9.43793 20.8497 9.53052 20.8942 9.64305L21.8242 9.27543ZM21.9292 10.29C21.9292 10.0788 21.9295 9.89593 21.9193 9.74434C21.9089 9.58777 21.8859 9.43157 21.8242 9.27543L20.8942 9.64305C20.9025 9.66405 20.9145 9.70536 20.9216 9.81096C20.9289 9.92154 20.9292 10.0655 20.9292 10.29H21.9292ZM21.9292 11.5538V10.29H20.9292V11.5538H21.9292ZM21.8242 12.5682C21.8859 12.4121 21.9089 12.2559 21.9193 12.0994C21.9295 11.9478 21.9292 11.765 21.9292 11.5538H20.9292C20.9292 11.7783 20.9289 11.9222 20.9216 12.0328C20.9145 12.1384 20.9025 12.1797 20.8942 12.2007L21.8242 12.5682ZM21.1166 13.3501C21.4393 13.1837 21.6907 12.9059 21.8242 12.5682L20.8942 12.2007C20.8497 12.3132 20.7659 12.4058 20.6583 12.4613L21.1166 13.3501ZM20.1177 13.5555C20.3278 13.5345 20.5098 13.5166 20.6596 13.4914C20.8143 13.4654 20.9674 13.427 21.1166 13.3501L20.6583 12.4613C20.6383 12.4716 20.5984 12.4877 20.494 12.5052C20.3847 12.5236 20.2415 12.5381 20.0182 12.5605L20.1177 13.5555ZM18.9151 13.7504C18.9299 13.7391 18.991 13.7024 19.2052 13.6639C19.4145 13.6262 19.699 13.5974 20.1177 13.5555L20.0182 12.5605C19.6163 12.6007 19.2853 12.6334 19.0281 12.6797C18.7756 12.7251 18.519 12.7948 18.3087 12.9552L18.9151 13.7504ZM18.7228 14.2147C18.6988 14.0366 18.7722 13.8593 18.9151 13.7504L18.3087 12.9552C17.88 13.2821 17.6597 13.8139 17.7317 14.3482L18.7228 14.2147ZM19.4357 15.2033C19.1691 14.8775 18.9883 14.6558 18.8668 14.4811C18.7425 14.3023 18.7252 14.2332 18.7227 14.2147L17.7317 14.3482C17.767 14.6104 17.8992 14.8412 18.0457 15.0518C18.1949 15.2665 18.4058 15.5238 18.6617 15.8365L19.4357 15.2033ZM19.4391 15.2076L19.4391 15.2075L18.6583 15.8322L18.6583 15.8322L19.4391 15.2076ZM19.9974 16.0559C19.9463 15.8958 19.8651 15.7602 19.774 15.6323C19.6857 15.5085 19.5696 15.367 19.4357 15.2033L18.6617 15.8365C18.8041 16.0105 18.8951 16.1222 18.9595 16.2126C19.021 16.2989 19.0379 16.3385 19.0448 16.36L19.9974 16.0559ZM19.9449 17.1082C20.0891 16.7753 20.1077 16.4015 19.9974 16.0559L19.0448 16.36C19.0815 16.4752 19.0753 16.5998 19.0273 16.7108L19.9449 17.1082ZM19.3014 17.9005C19.4508 17.751 19.5804 17.6218 19.6805 17.5074C19.7839 17.3892 19.8781 17.2623 19.9449 17.1082L19.0273 16.7108C19.0183 16.7315 18.9976 16.7693 18.9278 16.849C18.8548 16.9324 18.7531 17.0345 18.5942 17.1934L19.3014 17.9005ZM18.4084 18.7935L19.3014 17.9005L18.5942 17.1934L17.7013 18.0864L18.4084 18.7935ZM17.6158 19.4372C17.77 19.3704 17.8969 19.2762 18.0151 19.1727C18.1296 19.0726 18.2588 18.943 18.4084 18.7935L17.7013 18.0864C17.5423 18.2453 17.4402 18.347 17.3567 18.42C17.277 18.4898 17.2392 18.5105 17.2185 18.5195L17.6158 19.4372ZM16.5639 19.4897C16.9093 19.5999 17.283 19.5813 17.6158 19.4372L17.2185 18.5195C17.1076 18.5675 16.983 18.5737 16.8679 18.537L16.5639 19.4897ZM15.711 18.9279C15.8747 19.0618 16.0163 19.178 16.1401 19.2662C16.2681 19.3574 16.4037 19.4386 16.5639 19.4897L16.8679 18.537C16.8463 18.5301 16.8067 18.5133 16.7204 18.4518C16.63 18.3874 16.5182 18.2963 16.3442 18.1539L15.711 18.9279ZM14.722 18.2146C14.7404 18.2171 14.8096 18.2344 14.9885 18.3587C15.1633 18.4802 15.385 18.6612 15.711 18.9279L16.3442 18.1539C16.0313 17.8979 15.7739 17.6868 15.5592 17.5376C15.3484 17.3911 15.1175 17.2588 14.8552 17.2236L14.722 18.2146ZM14.2579 18.4069C14.3668 18.2641 14.544 18.1907 14.722 18.2146L14.8552 17.2236C14.3212 17.1518 13.7897 17.3719 13.4629 17.8003L14.2579 18.4069ZM14.0629 19.6101C14.1048 19.1912 14.1336 18.9066 14.1713 18.6971C14.2099 18.4828 14.2465 18.4217 14.2579 18.4069L13.4629 17.8003C13.3023 18.0106 13.2326 18.2674 13.1871 18.52C13.1408 18.7773 13.108 19.1085 13.0678 19.5106L14.0629 19.6101ZM13.8573 20.6096C13.9343 20.4603 13.9727 20.3071 13.9987 20.1523C14.0239 20.0024 14.0418 19.8204 14.0629 19.6101L13.0678 19.5106C13.0455 19.7341 13.0309 19.8774 13.0125 19.9867C12.995 20.0911 12.9789 20.131 12.9686 20.1511L13.8573 20.6096ZM13.0758 21.3168C13.4133 21.1833 13.6909 20.9321 13.8573 20.6096L12.9686 20.1511C12.9131 20.2586 12.8206 20.3424 12.7081 20.3868L13.0758 21.3168ZM12.0609 21.4219C12.2722 21.4219 12.4551 21.4221 12.6068 21.412C12.7634 21.4015 12.9196 21.3785 13.0758 21.3168L12.7081 20.3868C12.6871 20.3951 12.6458 20.4072 12.5401 20.4142C12.4295 20.4216 12.2855 20.4219 12.0609 20.4219V21.4219ZM10.7973 21.4219H12.0609V20.4219H10.7973V21.4219ZM9.78285 21.3169C9.93896 21.3786 10.0951 21.4016 10.2517 21.412C10.4032 21.4221 10.5861 21.4219 10.7973 21.4219V20.4219C10.5728 20.4219 10.4288 20.4216 10.3183 20.4142C10.2127 20.4072 10.1714 20.3952 10.1504 20.3869L9.78285 21.3169ZM9.00097 20.6093C9.16737 20.932 9.44517 21.1834 9.78284 21.3169L10.1504 20.3869C10.0378 20.3424 9.94525 20.2586 9.88978 20.151L9.00097 20.6093ZM8.79555 19.6103C8.81657 19.8205 8.8345 20.0024 8.85965 20.1523C8.88563 20.307 8.92404 20.4601 9.00097 20.6093L9.88978 20.151C9.87943 20.1309 9.86337 20.091 9.84585 19.9867C9.82751 19.8774 9.81293 19.7342 9.79059 19.5108L8.79555 19.6103ZM8.60071 18.4078C8.61202 18.4226 8.64867 18.4837 8.6872 18.6978C8.72487 18.9072 8.75368 19.1917 8.79555 19.6103L9.79059 19.5108C9.7504 19.1089 9.71767 18.778 9.67139 18.5208C9.62597 18.2683 9.55626 18.0117 9.39589 17.8014L8.60071 18.4078ZM8.13637 18.2154C8.31447 18.1914 8.49174 18.2649 8.60071 18.4078L9.39588 17.8014C9.06898 17.3727 8.53716 17.1524 8.00287 17.2244L8.13637 18.2154ZM7.1478 18.9284C7.4736 18.6618 7.69524 18.4809 7.87 18.3595C8.04877 18.2352 8.11791 18.2179 8.13637 18.2154L8.00286 17.2244C7.74072 17.2597 7.50992 17.3919 7.29927 17.5383C7.0846 17.6875 6.82732 17.8985 6.51457 18.1544L7.1478 18.9284ZM7.18473 18.8949L7.18474 18.8949L6.47763 18.1878L6.47762 18.1878L7.18473 18.8949ZM7.16334 18.9151L7.16336 18.9151L6.49899 18.1677L6.49898 18.1677L7.16334 18.9151ZM6.29517 19.4901C6.45525 19.439 6.59083 19.3578 6.71874 19.2666C6.8426 19.1784 6.9841 19.0623 7.14778 18.9284L6.51454 18.1544C6.34058 18.2968 6.22886 18.3878 6.1385 18.4522C6.05219 18.5137 6.01257 18.5306 5.99106 18.5374L6.29517 19.4901ZM5.24291 19.4376C5.57578 19.5817 5.94961 19.6004 6.29517 19.4901L5.99106 18.5374C5.87587 18.5742 5.75126 18.568 5.6403 18.5199L5.24291 19.4376ZM4.4506 18.794C4.60008 18.9435 4.72929 19.0731 4.84372 19.1732C4.96191 19.2766 5.08872 19.3708 5.2429 19.4376L5.6403 18.5199C5.61956 18.511 5.58182 18.4902 5.50211 18.4205C5.41864 18.3475 5.31658 18.2458 5.15771 18.0869L4.4506 18.794ZM3.55761 17.901L4.4506 18.794L5.15771 18.0869L4.26471 17.1939L3.55761 17.901ZM2.91387 17.1084C2.98064 17.2627 3.07491 17.3895 3.17833 17.5078C3.27846 17.6223 3.40808 17.7515 3.55761 17.901L4.26471 17.1939C4.10579 17.035 4.00406 16.9329 3.93103 16.8494C3.86128 16.7697 3.84055 16.7319 3.83157 16.7112L2.91387 17.1084ZM2.86141 16.0565C2.75118 16.402 2.76981 16.7757 2.91387 17.1084L3.83157 16.7112C3.78355 16.6002 3.77734 16.4757 3.81408 16.3605L2.86141 16.0565ZM3.42322 15.2037C3.28927 15.3674 3.17312 15.5089 3.08486 15.6328C2.9937 15.7608 2.91251 15.8964 2.86141 16.0565L3.81408 16.3605C3.82095 16.339 3.83782 16.2994 3.89932 16.213C3.96371 16.1227 4.05481 16.0109 4.19718 15.8369L3.42322 15.2037ZM3.43391 15.191L3.43391 15.191L4.18649 15.8495L4.18649 15.8495L3.43391 15.191ZM4.13643 14.2146C4.13395 14.2331 4.11666 14.3023 3.99237 14.4811C3.87085 14.656 3.68991 14.8777 3.42322 15.2037L4.19718 15.8369C4.45319 15.524 4.66426 15.2666 4.81353 15.0518C4.96001 14.8411 5.09226 14.6101 5.12752 14.3478L4.13643 14.2146ZM3.94419 13.7505C4.08697 13.8595 4.16035 14.0366 4.13643 14.2146L5.12752 14.3478C5.19929 13.8138 4.97915 13.2824 4.55081 12.9555L3.94419 13.7505ZM2.74097 13.5555C3.15989 13.5974 3.4445 13.6263 3.65398 13.664C3.86824 13.7025 3.92935 13.7392 3.94419 13.7505L4.55081 12.9555C4.34043 12.795 4.08368 12.7252 3.83111 12.6798C3.57376 12.6335 3.2426 12.6007 2.84048 12.5605L2.74097 13.5555ZM1.74152 13.35C1.89078 13.427 2.04397 13.4654 2.19878 13.4914C2.34867 13.5166 2.5307 13.5345 2.74097 13.5555L2.84048 12.5605C2.61699 12.5382 2.47371 12.5236 2.36438 12.5052C2.25997 12.4877 2.22005 12.4716 2.19997 12.4612L1.74152 13.35ZM1.03431 12.5685C1.16776 12.906 1.41902 13.1836 1.74152 13.35L2.19997 12.4612C2.09247 12.4058 2.00872 12.3132 1.96424 12.2008L1.03431 12.5685ZM0.929199 11.5536C0.929199 11.7649 0.928941 11.9478 0.93907 12.0994C0.949533 12.2561 0.972546 12.4123 1.03431 12.5685L1.96424 12.2008C1.95593 12.1798 1.9439 12.1384 1.93685 12.0328C1.92946 11.9222 1.9292 11.7782 1.9292 11.5536H0.929199ZM0.929199 10.2903V11.5536H1.9292V10.2903H0.929199ZM1.03435 9.27514C0.972561 9.43135 0.94954 9.58764 0.939074 9.74429C0.92894 9.89596 0.929199 10.0789 0.929199 10.2903H1.9292C1.9292 10.0656 1.92946 9.92159 1.93685 9.81095C1.94391 9.7053 1.95594 9.66397 1.96425 9.64296L1.03435 9.27514ZM1.74143 8.49383C1.419 8.66019 1.1678 8.93776 1.03435 9.27514L1.96425 9.64295C2.00873 9.5305 2.09247 9.43797 2.19994 9.38252L1.74143 8.49383ZM2.74133 8.28817C2.53093 8.30921 2.34879 8.32716 2.19884 8.35234C2.04398 8.37834 1.89073 8.4168 1.74143 8.49383L2.19994 9.38252C2.22001 9.37217 2.25994 9.35608 2.36444 9.33853C2.47384 9.32016 2.61721 9.30557 2.84083 9.2832L2.74133 8.28817ZM2.79108 8.28569H2.79108V9.28569H2.79108V8.28569ZM3.94429 8.09331C3.92948 8.1046 3.86837 8.14125 3.65413 8.17979C3.44469 8.21746 3.16013 8.24629 2.74133 8.28817L2.84083 9.2832C3.24286 9.243 3.57392 9.21027 3.83117 9.16399C4.08362 9.11858 4.34028 9.04889 4.55059 8.88854L3.94429 8.09331ZM4.13666 7.62889C4.16067 7.80702 4.08722 7.98433 3.94429 8.09331L4.55059 8.88854C4.9794 8.56161 5.19973 8.02968 5.12769 7.4953L4.13666 7.62889ZM3.42418 6.64093C3.69059 6.96654 3.87132 7.18802 3.99271 7.36267C4.11687 7.54131 4.13416 7.61041 4.13666 7.62889L5.12769 7.4953C5.09236 7.23323 4.96021 7.00253 4.81385 6.79195C4.66473 6.57738 4.45387 6.32025 4.19814 6.00769L3.42418 6.64093ZM2.86316 5.78948C2.91426 5.94934 2.99536 6.08475 3.08638 6.2125C3.17451 6.33619 3.29046 6.4775 3.42418 6.64093L4.19814 6.00769C4.05601 5.83399 3.96508 5.72244 3.9008 5.63222C3.8394 5.54605 3.82255 5.50649 3.81567 5.48498L2.86316 5.78948ZM2.9157 4.73609C2.77125 5.06928 2.75258 5.44356 2.86316 5.78948L3.81567 5.48498C3.77881 5.36968 3.78504 5.24492 3.83319 5.13385L2.9157 4.73609ZM3.55866 3.94468C3.40934 4.094 3.27991 4.22307 3.1799 4.33738C3.07662 4.45544 2.98246 4.5821 2.9157 4.73609L3.83318 5.13385C3.84216 5.11314 3.86288 5.07545 3.93254 4.99582C4.00548 4.91244 4.10706 4.81049 4.26576 4.65179L3.55866 3.94468ZM3.55866 3.94468L3.55866 3.94468L4.26576 4.65179L4.26577 4.65179L3.55866 3.94468ZM4.45257 3.05077L3.55866 3.94468L4.26577 4.65179L5.15968 3.75788L4.45257 3.05077ZM5.24369 2.408C5.08976 2.47475 4.96315 2.56889 4.84513 2.67214C4.73086 2.77211 4.60184 2.9015 4.45257 3.05077L5.15968 3.75788C5.31833 3.59923 5.42024 3.49768 5.50359 3.42476C5.58319 3.35512 5.62087 3.33441 5.64157 3.32543L5.24369 2.408ZM6.29744 2.35544C5.95141 2.24478 5.57698 2.26345 5.24369 2.408L5.64157 3.32543C5.75267 3.27725 5.87748 3.27103 5.99282 3.30791L6.29744 2.35544ZM7.14858 2.9163C6.98521 2.78263 6.84395 2.66672 6.7203 2.57862C6.5926 2.48762 6.45724 2.40655 6.29744 2.35544L5.99282 3.30791C6.01432 3.31479 6.05387 3.33164 6.14 3.39302C6.23019 3.45728 6.3417 3.54818 6.51535 3.69026L7.14858 2.9163ZM7.18552 2.94973L7.18552 2.94973L6.47841 3.65683L6.47841 3.65684L7.18552 2.94973ZM8.1362 3.62856C8.11773 3.62606 8.04865 3.60877 7.87007 3.48464C7.69548 3.36329 7.47408 3.18261 7.14859 2.9163L6.51535 3.69026C6.8278 3.9459 7.08484 4.15669 7.29933 4.30577C7.50983 4.45209 7.74045 4.5842 8.00242 4.61957L8.1362 3.62856ZM8.60077 3.43613C8.49178 3.57914 8.31439 3.65261 8.1362 3.62856L8.00242 4.61957C8.53699 4.69173 9.06915 4.47131 9.39612 4.04228L8.60077 3.43613ZM8.79552 2.2337C8.75366 2.65231 8.72485 2.93674 8.6872 3.14609C8.64868 3.36023 8.61205 3.42132 8.60077 3.43613L9.39612 4.04228C9.55636 3.83202 9.62601 3.57546 9.6714 3.32311C9.71765 3.06596 9.75038 2.73505 9.79056 2.3332L8.79552 2.2337ZM8.79304 2.28345V2.28345H9.79304V2.28345H8.79304ZM9.00102 1.23437C8.92406 1.38361 8.88563 1.53677 8.85965 1.69154C8.83449 1.84141 8.81655 2.02343 8.79552 2.23369L9.79056 2.3332C9.81291 2.10972 9.8275 1.96644 9.84585 1.85711C9.86338 1.75268 9.87945 1.71277 9.8898 1.69271L9.00102 1.23437ZM9.78275 0.526913C9.44515 0.660368 9.1674 0.911726 9.00102 1.23437L9.8898 1.69271C9.94526 1.58516 10.0378 1.50137 10.1504 1.45689L9.78275 0.526913ZM10.7973 0.421875C10.5861 0.421875 10.4033 0.421616 10.2517 0.431739C10.0951 0.442194 9.93889 0.46519 9.78275 0.526913L10.1504 1.45689C10.1714 1.44859 10.2127 1.43657 10.3183 1.42952C10.4289 1.42213 10.5728 1.42188 10.7973 1.42188V0.421875ZM12.0608 0.421875H10.7973V1.42188H12.0608V0.421875ZM13.0759 0.527025C12.9197 0.465237 12.7634 0.442216 12.6068 0.43175C12.4551 0.421616 12.2722 0.421875 12.0608 0.421875V1.42188C12.2854 1.42188 12.4295 1.42213 12.5401 1.42953C12.6458 1.43658 12.6871 1.44861 12.7081 1.45692L13.0759 0.527025ZM13.8572 1.2341C13.6909 0.911676 13.4133 0.660471 13.0759 0.527025L12.7081 1.45693C12.8206 1.50141 12.9131 1.58514 12.9686 1.69262L13.8572 1.2341ZM14.9292 10.9219C14.9292 12.8549 13.3622 14.4219 11.4292 14.4219V15.4219C13.9145 15.4219 15.9292 13.4072 15.9292 10.9219H14.9292ZM11.4292 7.42188C13.3622 7.42188 14.9292 8.98888 14.9292 10.9219H15.9292C15.9292 8.43659 13.9145 6.42188 11.4292 6.42188V7.42188ZM7.9292 10.9219C7.9292 8.98888 9.4962 7.42188 11.4292 7.42188V6.42188C8.94392 6.42188 6.9292 8.43659 6.9292 10.9219H7.9292ZM11.4292 14.4219C9.4962 14.4219 7.9292 12.8549 7.9292 10.9219H6.9292C6.9292 13.4072 8.94392 15.4219 11.4292 15.4219V14.4219Z" fill="#38383A"/>
</svg>
