<svg width="25" height="25" viewBox="0 0 25 25" fill="none" xmlns="http://www.w3.org/2000/svg">
<path fill-rule="evenodd" clip-rule="evenodd" d="M17.7079 14.8115C18.3826 14.8115 18.9489 15.3684 18.8458 16.0347C18.2405 19.9547 14.8847 22.8652 10.8373 22.8652C6.35945 22.8652 2.72998 19.2357 2.72998 14.7589C2.72998 11.0705 5.53209 7.63467 8.68682 6.85782C9.36472 6.69046 10.0595 7.1673 10.0595 7.86519C10.0595 12.5936 10.2184 13.8168 11.1163 14.482C12.0142 15.1473 13.07 14.8115 17.7079 14.8115Z" stroke-linecap="round" stroke-linejoin="round"/>
<path fill-rule="evenodd" clip-rule="evenodd" d="M22.1233 10.875C22.177 7.83714 18.4454 2.9403 13.898 3.02451C13.5443 3.03083 13.2612 3.32556 13.2454 3.67819C13.1307 6.17609 13.2854 9.41293 13.3717 10.8803C13.398 11.3371 13.757 11.6961 14.2128 11.7224C15.7212 11.8087 19.0759 11.9266 21.538 11.554C21.8728 11.5035 22.118 11.2129 22.1233 10.875Z" stroke-linecap="round" stroke-linejoin="round"/>
</svg>
