<svg width="280" height="289" viewBox="0 0 280 289" fill="none" xmlns="http://www.w3.org/2000/svg">
<path d="M241.064 251.867C265.367 228.647 302.395 180.492 256.084 173.633C198.195 165.059 157.951 271.158 81.0837 217.573C4.21675 163.988 67.6523 122.7 81.0837 110.437C111.64 82.5401 59.9436 -2.12598 1 1.08912" stroke="#FFCD1B" stroke-width="2"/>
<path d="M178.357 114.529C189.101 114.529 197.811 105.819 197.811 95.075C197.811 84.3307 189.101 75.6207 178.357 75.6207C167.612 75.6207 158.902 84.3307 158.902 95.075C158.902 105.819 167.612 114.529 178.357 114.529Z" fill="#8CE08C"/>
<path d="M170.863 68.2574C173.124 75.2578 177.454 81.4083 183.282 85.8979C189.11 90.3875 196.161 93.0053 203.507 93.4061" stroke="#2B7C63" stroke-width="4.49" stroke-linecap="round" stroke-linejoin="round"/>
<path d="M178.999 96.8681C178.731 94.8773 179.266 93.161 180.192 93.0366C181.117 92.9121 182.087 94.4272 182.354 96.418C182.621 98.4088 182.087 100.122 181.158 100.246C180.228 100.37 179.266 98.859 178.999 96.8681Z" stroke="#2B7C63" stroke-width="4.49" stroke-linecap="round" stroke-linejoin="round"/>
<path fill-rule="evenodd" clip-rule="evenodd" d="M215.217 162.02C215.217 158.956 216.125 155.961 217.828 153.413C219.53 150.866 221.95 148.88 224.78 147.708C227.611 146.535 230.726 146.229 233.731 146.827C236.736 147.425 239.497 148.901 241.663 151.067C243.829 153.234 245.304 155.995 245.902 159C246.499 162.005 246.192 165.12 245.019 167.951C243.846 170.781 241.859 173.2 239.311 174.902C236.764 176.604 233.768 177.512 230.704 177.511C228.67 177.511 226.656 177.11 224.777 176.332C222.897 175.553 221.19 174.412 219.752 172.974C218.313 171.535 217.173 169.827 216.395 167.948C215.617 166.068 215.216 164.054 215.217 162.02V162.02Z" fill="#8CE08C"/>
<path fill-rule="evenodd" clip-rule="evenodd" d="M117.218 162.02C117.218 158.956 118.126 155.961 119.828 153.414C121.531 150.866 123.95 148.881 126.781 147.708C129.611 146.536 132.726 146.229 135.731 146.827C138.736 147.424 141.496 148.9 143.663 151.066C145.829 153.233 147.304 155.993 147.902 158.998C148.5 162.003 148.193 165.117 147.021 167.948C145.848 170.779 143.863 173.198 141.315 174.9C138.768 176.602 135.773 177.511 132.709 177.511C128.6 177.511 124.66 175.879 121.755 172.974C118.85 170.069 117.218 166.128 117.218 162.02V162.02Z" fill="#8CE08C"/>
<path fill-rule="evenodd" clip-rule="evenodd" d="M132.157 249.396C145.479 239.43 230.248 177.01 245.477 223.036C256.554 256.51 136.304 266.435 132.626 265.86C132.354 265.818 132.066 265.731 131.769 265.604C130.706 271.684 127.453 280.189 117.071 285.779L118.491 248.872L132.157 249.396Z" fill="#D4D4D4"/>
<path fill-rule="evenodd" clip-rule="evenodd" d="M228.74 262.793C215.483 262.656 105.647 261.522 121.857 214.809C133.042 182.582 228.373 242.56 236.934 248.967L249.082 254.739L233.233 288.1C226.394 277.992 227.77 268.653 229.76 262.802C229.657 262.803 229.553 262.802 229.449 262.801C229.257 262.799 229.02 262.796 228.74 262.793Z" fill="#F2F2F2"/>
<rect x="129.473" y="137.657" width="105.895" height="73.5686" rx="3" fill="#B9B9B9"/>
<circle cx="182.422" cy="174.442" r="9.88281" fill="white"/>
</svg>
