<svg width="500" height="425" viewBox="0 0 500 425" fill="none" xmlns="http://www.w3.org/2000/svg">
<path d="M141.58 377.677C142.542 348.868 77.5762 250.288 39.8842 234.87" stroke="#9EF5EE" stroke-width="6.94" stroke-linecap="round" stroke-linejoin="round"/>
<path d="M354.093 78.9194L161.91 280.809L497.508 346.216L354.093 78.9194Z" stroke="#E5E5E5" stroke-width="4.36" stroke-linecap="round" stroke-linejoin="round"/>
<path d="M135.117 386.903C114.5 329.942 160.816 177.732 200.856 139.245" stroke="#9EF5EE" stroke-width="6.94" stroke-linecap="round" stroke-linejoin="round"/>
<path fill-rule="evenodd" clip-rule="evenodd" d="M173.527 178.528C165.887 174.661 134.918 111.038 147.591 101.586C156.667 94.8129 187.791 136.057 179.416 169.203C177.134 173.423 173.527 178.528 173.527 178.528Z" fill="#9EF5EE"/>
<path fill-rule="evenodd" clip-rule="evenodd" d="M59.9759 248.039C56.2194 253.204 5.78289 268.589 0.313873 258.16C-3.62492 250.669 30.3714 232.571 53.7942 242.592C56.6337 244.769 59.9759 248.039 59.9759 248.039Z" fill="#9EF5EE"/>
<path fill-rule="evenodd" clip-rule="evenodd" d="M85.6139 275.042C81.4155 279.837 29.7581 290.443 25.2779 279.527C22.0628 271.722 57.6004 256.878 79.9681 269.031C82.6142 271.49 85.6139 275.042 85.6139 275.042Z" fill="#9EF5EE"/>
<path fill-rule="evenodd" clip-rule="evenodd" d="M106.214 302.265C101.529 306.607 49.0655 311.922 45.7123 300.608C43.3037 292.515 80.1671 281.345 101.203 295.73C103.568 298.426 106.214 302.265 106.214 302.265Z" fill="#9EF5EE"/>
<path fill-rule="evenodd" clip-rule="evenodd" d="M124.008 331.384C118.92 335.251 66.1851 335.4 63.9533 323.827C62.3513 315.54 100.132 308.033 119.66 324.379C121.748 327.307 124.008 331.384 124.008 331.384Z" fill="#9EF5EE"/>
<path fill-rule="evenodd" clip-rule="evenodd" d="M182.289 165.236C189.47 169.926 260.037 165.142 261.932 149.448C263.291 138.201 212.026 131.732 187.443 155.486C184.94 159.568 182.289 165.236 182.289 165.236Z" fill="#9EF5EE"/>
<path fill-rule="evenodd" clip-rule="evenodd" d="M160.551 211.767C168.135 215.761 237.951 204.37 238.365 188.565C238.658 177.246 187.017 175.611 164.771 201.575C162.644 205.873 160.551 211.767 160.551 211.767Z" fill="#9EF5EE"/>
<path fill-rule="evenodd" clip-rule="evenodd" d="M68.3617 256.237C72.5878 252.066 79.703 203.574 69.3506 199.989C61.937 197.42 50.0157 231.179 62.5115 251.315C64.9035 253.619 68.3617 256.237 68.3617 256.237Z" fill="#9EF5EE"/>
<path fill-rule="evenodd" clip-rule="evenodd" d="M93.1712 284.5C98.2093 281.351 115.738 235.582 106.429 229.809C99.7506 225.683 80.7637 256.027 88.5474 278.423C90.3704 281.185 93.1712 284.5 93.1712 284.5Z" fill="#9EF5EE"/>
<path fill-rule="evenodd" clip-rule="evenodd" d="M113.942 313.585C119.113 310.668 138.669 265.728 129.615 259.557C123.135 255.138 102.811 284.61 109.589 307.304C110.934 309.469 112.387 311.565 113.942 313.585V313.585Z" fill="#9EF5EE"/>
<path fill-rule="evenodd" clip-rule="evenodd" d="M144.287 259.695C152.192 263.01 220.715 245.432 219.721 229.655C219.003 218.352 167.423 221.329 147.58 249.166C145.828 253.641 144.287 259.695 144.287 259.695Z" fill="#9EF5EE"/>
<path fill-rule="evenodd" clip-rule="evenodd" d="M154.667 225.887C146.381 223.677 102.877 167.882 113.307 156.016C120.776 147.503 159.794 181.378 158.496 215.54C157.12 220.142 154.667 225.887 154.667 225.887Z" fill="#9EF5EE"/>
<path fill-rule="evenodd" clip-rule="evenodd" d="M139.879 276.859C131.404 275.567 82.0231 224.931 91.0829 211.96C97.5739 202.68 140.078 232.058 142.541 266.159C141.702 270.877 139.879 276.859 139.879 276.859Z" fill="#9EF5EE"/>
<path d="M234.614 105.701C233.382 90.0014 229.035 56.1101 220.439 39.7417" stroke="#9EF5EE" stroke-width="5" stroke-linecap="round" stroke-linejoin="round"/>
<path d="M236.874 105.701C236.874 101.834 258.938 65.4015 284.222 47.0444" stroke="#9EF5EE" stroke-width="5" stroke-linecap="round" stroke-linejoin="round"/>
<path d="M249.453 103.337H222.886V175.346H249.453V103.337Z" fill="#FE697D"/>
<path d="M282.83 402.719C275.096 402.719 255.872 403.68 243.779 424.208H299.524V402.719H282.83Z" fill="#C8C8C8"/>
<path fill-rule="evenodd" clip-rule="evenodd" d="M390.327 321.341C390.327 280.301 293.845 239.637 260.562 239.637C255.756 239.637 255.137 239.637 255.137 242.272C255.137 244.907 274.98 410.176 274.98 410.176H329.709C329.4 406.646 325.842 365.805 325.842 365.805C329.643 365.805 390.327 383.787 390.327 321.341Z" fill="#DADADA"/>
<path d="M329.709 410.176H296.508V424.23H329.709V410.176Z" fill="#777777"/>
<path d="M370.5 240.5C394.5 223.5 412.391 204.828 412.391 174.522C412.391 144.217 387.823 119.65 357.518 119.65C327.213 119.65 302.646 144.217 302.646 174.522C302.645 243 336.5 246 370.5 240.5Z" fill="#FE697D"/>
<path d="M324.549 144.542C318.723 153.455 315.628 163.875 315.644 174.523C315.643 177.425 315.87 180.323 316.324 183.19" stroke="white" stroke-width="16.23" stroke-linecap="round" stroke-linejoin="round"/>
<path d="M355.883 99.9229C371.168 99.9229 383.559 87.5317 383.559 72.2464C383.559 56.961 371.168 44.5698 355.883 44.5698C340.598 44.5698 328.206 56.961 328.206 72.2464C328.206 87.5317 340.598 99.9229 355.883 99.9229Z" fill="#8CE08C"/>
<path d="M336.763 67.1861C336.382 64.3521 337.139 61.9159 338.459 61.7392C339.78 61.5624 341.155 63.7113 341.531 66.5453C341.907 69.3792 341.15 71.8154 339.835 71.9922C338.52 72.169 337.139 70.0145 336.763 67.1861Z" stroke="#2B7C63" stroke-width="4.52" stroke-linecap="round" stroke-linejoin="round"/>
<path d="M345.873 0L328.206 38.1284L370.058 34.3609L345.873 0Z" fill="#2B7C63"/>
<path fill-rule="evenodd" clip-rule="evenodd" d="M348.044 161.75C348.044 158 349.156 154.335 351.239 151.217C353.322 148.099 356.283 145.669 359.748 144.234C363.212 142.799 367.024 142.424 370.702 143.155C374.38 143.887 377.758 145.693 380.409 148.344C383.061 150.996 384.867 154.374 385.598 158.052C386.33 161.729 385.954 165.541 384.519 169.006C383.084 172.47 380.654 175.431 377.536 177.514C374.419 179.598 370.753 180.71 367.003 180.71C361.975 180.708 357.154 178.71 353.599 175.155C350.043 171.6 348.045 166.778 348.044 161.75V161.75Z" fill="#8CE08C"/>
<path fill-rule="evenodd" clip-rule="evenodd" d="M214.197 132.621C214.197 128.871 215.309 125.206 217.392 122.088C219.475 118.97 222.436 116.54 225.901 115.105C229.365 113.67 233.177 113.294 236.855 114.026C240.532 114.757 243.911 116.563 246.562 119.215C249.214 121.866 251.019 125.244 251.751 128.922C252.482 132.6 252.107 136.412 250.672 139.876C249.237 143.341 246.807 146.302 243.689 148.385C240.571 150.468 236.906 151.58 233.156 151.58C228.128 151.58 223.305 149.583 219.75 146.027C216.194 142.472 214.197 137.649 214.197 132.621Z" fill="#8CE08C"/>
<path fill-rule="evenodd" clip-rule="evenodd" d="M261.976 81.483C261.972 80.221 262.342 78.9861 263.04 77.9347C263.738 76.8833 264.732 76.0628 265.897 75.577C267.062 75.0913 268.345 74.9622 269.583 75.2062C270.821 75.4501 271.959 76.056 272.853 76.9473C273.746 77.8385 274.355 78.9749 274.602 80.2125C274.85 81.4501 274.724 82.7332 274.241 83.8992C273.758 85.0653 272.941 86.0619 271.891 86.7627C270.841 87.4635 269.607 87.837 268.345 87.8359C266.659 87.8345 265.043 87.1652 263.849 85.9746C262.655 84.784 261.982 83.169 261.976 81.483V81.483Z" fill="#9EF5EE"/>
<path fill-rule="evenodd" clip-rule="evenodd" d="M251.535 54.2868C251.534 53.0257 251.907 51.7926 252.607 50.7435C253.307 49.6944 254.302 48.8765 255.467 48.3931C256.631 47.9098 257.913 47.7827 259.15 48.0281C260.387 48.2734 261.524 48.8802 262.416 49.7715C263.308 50.6628 263.916 51.7987 264.162 53.0355C264.409 54.2723 264.283 55.5544 263.8 56.7196C263.318 57.8848 262.501 58.8807 261.452 59.5815C260.404 60.2822 259.171 60.6562 257.91 60.6562C256.22 60.6562 254.6 59.9854 253.404 58.791C252.209 57.5967 251.537 55.9766 251.535 54.2868V54.2868Z" fill="#9EF5EE"/>
<path fill-rule="evenodd" clip-rule="evenodd" d="M283.681 36.8852C283.681 35.6242 284.055 34.3914 284.756 33.3429C285.456 32.2944 286.452 31.4773 287.617 30.995C288.783 30.5126 290.065 30.3867 291.301 30.6332C292.538 30.8796 293.674 31.4873 294.565 32.3794C295.457 33.2715 296.064 34.4079 296.309 35.6449C296.554 36.8819 296.427 38.1639 295.944 39.3287C295.461 40.4935 294.643 41.4887 293.593 42.1886C292.544 42.8884 291.311 43.2613 290.05 43.2602C289.213 43.2602 288.385 43.0953 287.611 42.7749C286.838 42.4544 286.136 41.9848 285.544 41.3927C284.953 40.8007 284.484 40.0979 284.164 39.3244C283.844 38.551 283.68 37.7222 283.681 36.8852Z" fill="#9EF5EE"/>
<path fill-rule="evenodd" clip-rule="evenodd" d="M282.957 56.7065C282.957 55.4457 283.331 54.2131 284.031 53.1648C284.732 52.1164 285.728 51.2993 286.892 50.8168C288.057 50.3343 289.339 50.2081 290.576 50.454C291.812 50.7 292.948 51.3072 293.84 52.1987C294.731 53.0903 295.339 54.2262 295.585 55.4628C295.831 56.6995 295.704 57.9813 295.222 59.1461C294.739 60.311 293.922 61.3067 292.874 62.0072C291.825 62.7077 290.593 63.0815 289.332 63.0815C287.641 63.0815 286.02 62.4099 284.824 61.2143C283.629 60.0188 282.957 58.3973 282.957 56.7065V56.7065Z" fill="#9EF5EE"/>
<path d="M329.339 402.719C321.605 402.719 302.38 403.68 290.288 424.208H346.044V402.719H329.339Z" fill="#C2C2C2"/>
<path fill-rule="evenodd" clip-rule="evenodd" d="M216.091 31.6045L209.606 40.3991L205.231 30.3836L200.856 20.3682L211.716 21.589L222.582 22.8099L216.091 31.6045Z" fill="#9EF5EE"/>
<path fill-rule="evenodd" clip-rule="evenodd" d="M241.774 37.9682L248.701 46.4038L237.918 48.1936L227.134 49.9669L231.001 39.7415L234.868 29.5161L241.774 37.9682Z" fill="#9EF5EE"/>
<path fill-rule="evenodd" clip-rule="evenodd" d="M211.716 57.3034L222.212 60.3196L214.346 67.9099L206.485 75.5003L203.833 64.8937L201.193 54.2871L211.716 57.3034Z" fill="#9EF5EE"/>
<path d="M355.656 157.403C349.58 154.641 326.179 132.997 316.003 114.225" stroke="#9EF5EE" stroke-width="6.94" stroke-linecap="round" stroke-linejoin="round"/>
<path d="M318.705 117.854C317.489 115.96 319.887 102.027 322.732 101.016C325.577 100.005 323.505 121.882 322.29 121.981C321.074 122.08 318.705 117.854 318.705 117.854Z" fill="#9EF5EE"/>
<path d="M314.622 112.695C313.169 110.977 299.154 109.176 297.342 111.59C295.53 114.004 317.053 118.468 317.511 117.335C317.97 116.203 314.622 112.695 314.622 112.695Z" fill="#9EF5EE"/>
<path d="M322.875 125.335C321.423 123.616 307.408 121.816 305.596 124.23C303.784 126.644 325.306 131.113 325.759 129.975C326.212 128.837 322.875 125.335 322.875 125.335Z" fill="#9EF5EE"/>
<path d="M333.609 137.974C332.156 136.25 318.141 134.45 316.329 136.869C314.517 139.289 336.045 143.752 336.498 142.614C336.951 141.476 333.609 137.974 333.609 137.974Z" fill="#9EF5EE"/>
<path d="M328.814 130.538C327.599 128.644 330.002 114.711 332.841 113.695C335.681 112.679 333.62 134.56 332.399 134.66C331.178 134.759 328.814 130.538 328.814 130.538Z" fill="#9EF5EE"/>
<path d="M338.736 142.432C337.52 140.537 339.918 126.605 342.757 125.589C345.597 124.572 343.536 146.454 342.321 146.581C341.105 146.708 338.736 142.432 338.736 142.432Z" fill="#9EF5EE"/>
<path fill-rule="evenodd" clip-rule="evenodd" d="M436.846 321.341C436.846 280.301 340.365 239.637 307.082 239.637C302.275 239.637 301.657 239.637 301.657 242.272C301.657 244.907 321.5 410.176 321.5 410.176H376.229C375.919 406.646 372.362 365.805 372.362 365.805C376.19 365.805 436.846 383.787 436.846 321.341Z" fill="white"/>
<path d="M376.229 410.176H343.028V424.23H376.229V410.176Z" fill="#C2C2C2"/>
<path fill-rule="evenodd" clip-rule="evenodd" d="M138.139 371.573H135.266H97.0934L107.827 424.224H135.266H138.139H165.572L176.311 371.573H138.139Z" fill="#777777"/>
</svg>
