<?xml version="1.0" standalone="no"?>
<!DOCTYPE svg PUBLIC "-//W3C//DTD SVG 20010904//EN"
 "http://www.w3.org/TR/2001/REC-SVG-20010904/DTD/svg10.dtd">
<svg version="1.0" xmlns="http://www.w3.org/2000/svg"
 width="700.000000pt" height="700.000000pt" viewBox="0 0 700.000000 700.000000"
 preserveAspectRatio="xMidYMid meet">
<metadata>
Created by potrace 1.14, written by Peter Selinger 2001-2017
</metadata>
<g transform="translate(0.000000,700.000000) scale(0.100000,-0.100000)"
fill="#000000" stroke="none">
<path d="M2942 6332 c-53 -2 -71 -6 -65 -15 5 -8 2 -8 -9 1 -10 8 -28 10 -49
7 -19 -4 -56 -8 -84 -10 -27 -1 -70 -6 -95 -10 -167 -24 -254 -40 -393 -71
-435 -96 -764 -281 -954 -534 -48 -64 -106 -176 -123 -240 -27 -97 -15 -253
28 -355 51 -120 135 -267 208 -363 78 -103 216 -252 233 -252 6 0 11 -5 11
-11 0 -13 15 -27 135 -128 147 -124 250 -198 427 -308 37 -24 68 -40 68 -36 0
3 8 -1 18 -10 9 -8 44 -30 77 -47 33 -17 94 -49 135 -72 110 -60 228 -123 287
-154 62 -31 61 -19 17 -209 -4 -16 -7 -42 -8 -57 0 -14 -4 -24 -8 -21 -5 2 -8
-3 -8 -12 0 -8 -9 -41 -19 -73 -11 -31 -21 -66 -23 -77 -1 -11 -5 -22 -8 -25
-7 -7 -51 -132 -52 -147 -1 -7 -4 -13 -8 -13 -11 0 -31 -70 -24 -82 4 -7 3
-10 -1 -5 -11 10 -57 -81 -48 -96 3 -7 3 -9 -2 -5 -11 10 -47 -60 -39 -74 5
-7 2 -8 -6 -3 -10 6 -12 4 -7 -9 4 -9 3 -15 -2 -12 -5 3 -25 -18 -45 -47 -39
-56 -140 -196 -153 -212 -4 -6 -21 -28 -38 -50 -16 -22 -37 -49 -46 -60 -142
-169 -174 -209 -171 -217 1 -5 -1 -7 -6 -4 -10 6 -88 -74 -84 -87 1 -4 -1 -6
-6 -3 -5 3 -15 -3 -24 -12 -22 -25 -106 -101 -165 -151 -29 -24 -50 -48 -46
-54 3 -6 1 -7 -6 -3 -6 4 -17 1 -24 -6 -8 -7 -28 -24 -45 -37 -17 -13 -29 -27
-26 -32 3 -5 -2 -6 -10 -3 -9 3 -16 2 -16 -3 0 -5 -14 -17 -30 -27 -17 -9 -28
-22 -24 -27 3 -5 1 -8 -4 -7 -16 5 -93 -62 -86 -74 4 -6 2 -8 -4 -4 -6 3 -26
-12 -44 -34 -18 -23 -43 -53 -56 -68 -12 -15 -41 -65 -65 -111 -39 -78 -42
-90 -42 -164 0 -56 4 -82 13 -85 6 -2 10 -8 7 -13 -7 -11 24 -79 36 -79 5 0 8
-6 6 -12 -1 -7 3 -12 10 -11 7 2 10 -4 7 -12 -4 -8 1 -17 10 -21 9 -3 16 -11
16 -18 0 -20 210 -206 233 -206 4 0 18 -9 30 -20 12 -11 27 -18 35 -15 7 2 10
1 7 -5 -7 -12 32 -33 47 -24 7 4 8 3 4 -4 -4 -7 -1 -12 7 -12 8 0 20 -7 28
-16 7 -8 21 -13 30 -11 10 3 17 0 16 -6 -1 -6 3 -12 8 -12 6 -1 42 -16 80 -34
39 -18 75 -34 80 -35 6 -2 17 -6 25 -9 51 -22 104 -36 113 -30 5 3 7 1 4 -4
-7 -11 71 -36 85 -27 4 3 8 1 8 -4 0 -8 83 -33 125 -38 11 -1 31 -5 45 -9 92
-24 239 -48 302 -49 21 -1 38 -4 38 -7 0 -7 -5 -7 163 -13 75 -3 142 -8 147
-11 6 -3 10 -3 10 2 0 4 45 7 101 5 81 -3 99 -1 93 10 -6 10 -5 11 7 1 8 -6
24 -10 34 -8 11 2 37 4 58 4 28 1 36 4 31 13 -6 10 -5 10 7 1 11 -9 25 -10 45
-4 16 4 39 7 52 5 12 -2 22 0 22 5 0 4 12 6 26 3 21 -4 25 -2 19 9 -7 11 -6
12 7 2 8 -7 17 -10 20 -7 5 5 67 14 111 17 9 1 17 4 17 7 0 3 16 6 36 7 20 1
44 5 53 9 9 4 27 8 41 10 49 6 120 26 126 35 3 5 9 7 14 4 12 -8 210 57 204
67 -3 4 2 5 11 2 9 -4 26 -2 38 4 19 9 48 20 67 27 3 1 19 7 35 14 17 6 49 19
72 28 24 9 40 20 36 26 -3 6 -1 7 5 3 12 -7 103 30 113 46 3 5 9 9 13 8 11 -3
105 43 101 50 -2 3 5 6 15 7 10 1 37 13 59 27 22 14 45 26 51 26 5 0 10 5 10
10 0 6 4 10 9 10 13 0 184 102 193 115 4 5 8 6 8 2 0 -9 60 30 71 46 3 5 10 8
15 8 5 -1 9 3 9 8 0 5 4 13 9 18 5 5 6 3 2 -4 -4 -7 -2 -13 4 -13 6 0 13 7 16
15 4 8 11 12 17 8 6 -4 8 0 4 10 -4 12 -2 14 10 10 12 -5 14 -3 8 7 -5 9 -4
11 4 6 15 -10 43 13 34 27 -3 5 -1 7 5 3 11 -6 51 23 114 83 26 25 33 38 25
44 -8 6 -5 7 6 3 13 -4 30 5 55 31 20 21 36 41 34 46 -1 4 6 7 15 7 9 0 14 3
10 6 -3 3 10 21 30 39 20 18 33 38 29 44 -5 7 -1 9 8 5 14 -6 21 5 17 28 0 5
5 7 12 5 6 -1 11 4 9 11 -1 8 2 11 7 7 10 -6 37 34 33 48 -1 5 2 6 7 3 5 -3
15 2 22 11 12 14 12 16 -1 9 -8 -4 -7 -1 4 8 10 8 15 19 11 25 -4 7 0 8 11 4
11 -4 15 -2 11 4 -4 6 0 13 8 17 8 3 15 10 15 16 0 6 -6 8 -12 4 -8 -4 -10 -3
-5 2 5 5 13 9 19 9 6 0 16 9 22 20 6 11 13 22 16 25 19 17 52 72 39 66 -7 -4
-4 1 9 10 12 9 22 21 22 26 0 5 9 21 20 35 11 14 17 29 14 34 -3 5 -1 9 4 9
11 0 39 49 121 215 118 240 199 477 250 731 28 144 32 173 47 314 3 36 8 68
11 73 2 4 -1 7 -8 7 -7 0 -8 4 -2 13 12 15 11 97 -1 116 -6 10 -5 12 2 7 12
-7 11 121 -1 141 -4 6 -3 14 3 18 6 4 8 10 5 15 -3 4 -6 28 -6 52 -1 23 -7 49
-13 57 -8 11 -8 15 2 18 6 3 9 10 5 16 -4 7 -8 23 -9 37 -1 14 -2 27 -4 30 -1
3 -1 19 -1 35 1 20 -1 26 -7 17 -5 -7 -7 4 -6 30 1 24 -3 49 -8 56 -6 6 -7 12
-3 12 4 0 1 8 -6 17 -12 15 -12 16 1 8 12 -7 13 -6 5 6 -6 8 -12 27 -14 44 -2
16 -10 35 -19 43 -10 7 -11 11 -4 7 7 -4 12 0 12 10 0 9 -4 14 -9 11 -5 -4 -7
4 -3 16 3 11 1 19 -4 16 -5 -4 -10 10 -11 30 -1 19 -8 39 -15 43 -7 4 -9 11
-6 15 4 3 1 22 -7 40 -15 36 -15 37 -15 55 0 5 -3 8 -7 6 -5 -3 -9 6 -9 19 -1
13 -11 44 -23 69 -12 25 -21 49 -21 55 0 5 -4 10 -8 10 -5 0 -9 6 -9 14 0 19
-24 76 -32 76 -4 0 -7 10 -8 21 -1 12 -12 33 -25 47 -13 14 -17 22 -10 18 7
-4 0 14 -15 41 -16 26 -34 60 -42 75 -8 15 -19 25 -24 21 -6 -3 -7 -2 -4 3 8
14 -37 90 -52 86 -7 -1 -9 2 -6 9 4 6 -7 30 -24 54 -17 24 -31 48 -31 54 0 6
-5 11 -11 11 -5 0 -7 -5 -3 -12 4 -7 3 -8 -5 -4 -6 4 -9 12 -6 17 8 12 -30 60
-40 51 -5 -4 -6 -2 -2 3 7 13 -8 40 -23 40 -5 0 -10 5 -11 10 -2 21 -20 45
-30 40 -5 -4 -8 -1 -7 7 2 7 -3 12 -10 10 -8 -1 -11 2 -7 7 7 13 -33 58 -189
212 -65 65 -123 116 -129 112 -6 -4 -7 -1 -3 6 5 8 0 14 -13 18 -12 3 -21 12
-21 19 0 8 -4 14 -9 14 -4 0 -24 13 -42 30 -19 16 -43 33 -54 36 -11 4 -36 20
-56 35 -20 16 -42 29 -48 29 -6 0 -11 4 -11 9 0 9 -222 158 -229 152 -2 -1 -7
1 -10 6 -23 35 -471 249 -498 239 -8 -3 -12 -2 -9 3 3 5 -54 28 -127 51 -72
24 -141 46 -152 51 -17 6 -154 40 -222 54 -13 3 -33 7 -45 10 -13 3 -39 8 -58
11 -19 3 -69 12 -110 19 -56 10 -77 10 -82 2 -6 -9 -8 -9 -8 -1 0 23 -351 45
-578 36z m-61 -3505 c-10 -9 -11 -8 -5 6 3 10 9 15 12 12 3 -3 0 -11 -7 -18z
m2 -302 c-3 -9 -8 -14 -10 -11 -3 3 -2 9 2 15 9 16 15 13 8 -4z m-1193 -725
c0 -5 -5 -10 -11 -10 -5 0 -7 5 -4 10 3 6 8 10 11 10 2 0 4 -4 4 -10z m3760
-384 c0 -2 -8 -10 -17 -17 -16 -13 -17 -12 -4 4 13 16 21 21 21 13z m-920
-570 c0 -3 -4 -8 -10 -11 -5 -3 -10 -1 -10 4 0 6 5 11 10 11 6 0 10 -2 10 -4z
m-595 -246 c-3 -5 -12 -10 -18 -10 -7 0 -6 4 3 10 19 12 23 12 15 0z"/>
</g>
</svg>
