<svg width="25" height="25" viewBox="0 0 25 25" fill="none" xmlns="http://www.w3.org/2000/svg">
<path d="M12.6519 18.1641L7.36475 18.1641C5.47913 18.1641 4.53632 18.1641 3.95053 17.5783C3.36475 16.9925 3.36475 16.0497 3.36475 14.1641L3.36475 8.16406C3.36475 6.27844 3.36475 5.33564 3.95053 4.74985C4.53632 4.16406 5.47913 4.16406 7.36475 4.16406L16.3647 4.16406C18.2504 4.16406 19.1932 4.16406 19.779 4.74985C20.3647 5.33563 20.3647 6.27844 20.3647 8.16406L20.3647 10.4991" stroke-linecap="round"/>
<path d="M6.37451 7.16406H16.8096" stroke-linecap="round"/>
<path d="M6.37451 10.0781H12.3745" stroke-linecap="round"/>
<path d="M19.5937 12.7878C19.5937 12.3169 19.2121 11.9353 18.7411 11.9349H18.3531C18.128 11.9349 17.9123 11.8455 17.7524 11.6871L17.4813 11.4156C17.149 11.0815 16.6091 11.08 16.275 11.4122L16.2746 11.4126L16.2712 11.4156L15.9997 11.6871C15.8398 11.8459 15.6241 11.9349 15.399 11.9349H15.0114C14.5404 11.9349 14.1584 12.3165 14.1584 12.7878V13.1751C14.1584 13.4002 14.0694 13.6163 13.9106 13.7762L13.6391 14.0477C13.305 14.3799 13.3032 14.9199 13.6354 15.254L13.6357 15.2544L13.6391 15.2578L13.9106 15.5293C14.0694 15.6888 14.1584 15.9045 14.1584 16.1296V16.5176C14.1584 16.9886 14.54 17.3702 15.011 17.3702H15.0114H15.3997C15.6249 17.3702 15.8409 17.4596 16.0004 17.6183L16.2719 17.8894C16.6038 18.2235 17.1434 18.2254 17.4775 17.894C17.4779 17.8936 17.4782 17.8932 17.4786 17.8928L17.482 17.8894L17.7531 17.6183C17.9126 17.4596 18.1287 17.3706 18.3538 17.3702H18.7411C19.2121 17.3702 19.5937 16.9886 19.5937 16.5176V16.1288C19.5937 15.9037 19.6831 15.688 19.8418 15.5285L20.1129 15.257C20.447 14.9252 20.4489 14.3856 20.1171 14.0515C20.1171 14.0511 20.1167 14.0507 20.1163 14.0503L20.1129 14.0469L19.8418 13.7754C19.6831 13.6155 19.5937 13.3999 19.5937 13.1744V12.7878" stroke-linecap="round" stroke-linejoin="round"/>
<circle r="1.25893" transform="matrix(-1 0 0 1 16.8773 14.6535)"/>
<path d="M15.2378 18.7891V22.2435C15.2378 22.3151 15.3109 22.3635 15.3768 22.3356L16.8425 21.7139C16.8667 21.7036 16.8941 21.7033 16.9186 21.7131L18.4869 22.3398C18.5526 22.366 18.624 22.3176 18.624 22.2469V18.7891" stroke-linecap="round"/>
</svg>
